<?xml version="1.0" encoding="UTF-8"?>
<svg xmlns="http://www.w3.org/2000/svg">
    <defs>
        <symbol viewBox="0 0 53.1 53.19805" id="beer-18">
            <g>
                <path class="cls-1" d="M-289.453,349.88159a8.05545,8.05545,0,0,0-.88508.25289,2.09527,2.09527,0,0,1-2.90812-2.023c0-.25288.12644-.50576.12644-.75864a1.73156,1.73156,0,0,0-.25288-1.8966l-1.51728-2.27592a1.46518,1.46518,0,0,0-1.39084-.75864,2.12173,2.12173,0,0,1-1.77016-.75864,1.99355,1.99355,0,0,1,.25288-2.78168,1.79377,1.79377,0,0,0,.50576-1.77016,19.87456,19.87456,0,0,1-.50576-2.90812,1.35945,1.35945,0,0,0-1.01152-1.138,1.78214,1.78214,0,0,1-1.2644-1.39084,2.0634,2.0634,0,0,1,1.2644-2.65524,1.69984,1.69984,0,0,0,.88508-.75864,1.38507,1.38507,0,0,1,0-1.01152,14.70143,14.70143,0,0,1,.50576-2.27592,1.75822,1.75822,0,0,0-.50576-1.8966,1.81994,1.81994,0,0,1-.50576-1.8966,2.015,2.015,0,0,1,1.77016-1.64372h.50576a2.1975,2.1975,0,0,0,1.39084-.75864,27.07638,27.07638,0,0,1,1.64372-2.40236,1.81824,1.81824,0,0,0,.25288-1.77016,1.42686,1.42686,0,0,1-.37932-1.39084,2.03664,2.03664,0,0,1,2.78168-1.39084,1.60369,1.60369,0,0,0,.75864.12644,1.08123,1.08123,0,0,0,1.138-.37932,27.07638,27.07638,0,0,1,2.40236-1.64372c.6322-.25288.75864-.75864.75864-1.39084a2.04984,2.04984,0,0,1,1.51728-2.023,2.26125,2.26125,0,0,1,2.14948.50576,2.025,2.025,0,0,0,1.8966.50576,14.91574,14.91574,0,0,1,2.5288-.50576,1.82384,1.82384,0,0,0,1.51728-1.138,2.00946,2.00946,0,0,1,1.39084-1.2644,2.22009,2.22009,0,0,1,2.5288,1.01152c.12644.12644.12644.37932.25288.50576a1.5994,1.5994,0,0,0,1.2644.88508c.88508.12644,1.8966.37932,2.78168.50576a1.6562,1.6562,0,0,0,1.64372-.50576,1.99047,1.99047,0,0,1,2.14948-.6322,1.90609,1.90609,0,0,1,1.51728,1.8966v.6322a1.84127,1.84127,0,0,0,.75864,1.138l2.27592,1.51728c.37932.50576.88508.50576,1.64372.25288a2.00122,2.00122,0,0,1,2.65523.88508,2.02707,2.02707,0,0,1,.12644,1.8966,1.94689,1.94689,0,0,0,.25288,2.023c.50576.6322.88508,1.2644,1.39084,2.023a1.71527,1.71527,0,0,0,1.64372.88508,2.05324,2.05324,0,0,1,2.023,1.2644,1.90129,1.90129,0,0,1-.37932,2.27592,1.79519,1.79519,0,0,0-.50576,2.023,16.261,16.261,0,0,1,.50576,2.40236,1.82249,1.82249,0,0,0,1.138,1.39084,2.167,2.167,0,0,1,1.39084,2.023,1.80328,1.80328,0,0,1-1.39084,1.8966,1.82249,1.82249,0,0,0-1.138,1.39084c-.12644.88508-.37932,1.77016-.50576,2.65524a1.6562,1.6562,0,0,0,.50576,1.64372,1.85871,1.85871,0,0,1,.6322,2.023,2.39478,2.39478,0,0,1-2.023,1.77016h-.75863a1.60854,1.60854,0,0,0-1.138.88508l-1.51728,2.27592a2.027,2.027,0,0,0-.12643,1.8966,2.03773,2.03773,0,0,1-1.64372,2.90811,3.50083,3.50083,0,0,1-1.138-.12643,1.77605,1.77605,0,0,0-1.77017.25288l-2.27592,1.51728a1.80242,1.80242,0,0,0-.75864,1.51728,1.97527,1.97527,0,0,1-1.01151,1.8966,2.08713,2.08713,0,0,1-2.40236-.12644c-.25288-.12644-.37932-.37932-.6322-.50576a1.44979,1.44979,0,0,0-1.2644-.12644,21.44138,21.44138,0,0,1-2.78168.50576,1.73809,1.73809,0,0,0-1.2644,1.01152c-.37932.75864-.88508,1.39084-1.77016,1.39084a1.962,1.962,0,0,1-2.14948-1.2644,2.09307,2.09307,0,0,0-1.64372-1.2644,16.25977,16.25977,0,0,1-2.40236-.50576,1.56367,1.56367,0,0,0-1.77016.50576,2.33247,2.33247,0,0,1-2.023.6322,2.34438,2.34438,0,0,1-1.64372-1.77016,1.60369,1.60369,0,0,0-.12644-.75864,1.57038,1.57038,0,0,0-.75864-1.01152c-.88508-.50576-1.64372-1.138-2.5288-1.64372A7.25308,7.25308,0,0,0-289.453,349.88159Zm-7.46-9.35655h0a.76019.76019,0,0,0,.50576.12644,3.49678,3.49678,0,0,1,2.5288,1.64372c.6322.88508,1.2644,1.8966,1.77016,2.78168l.37932.75863c.12644.25289.12644.6322.25288,1.01152,0,.37932.12644.75864.12644,1.138,0,.25288-.12644.50576-.12644.88508h.25288a2.09416,2.09416,0,0,1,1.51728,0,.95452.95452,0,0,1,1.01152-.12645.95857.95857,0,0,1,.50576.25288c.88508.6322,1.77016,1.2644,2.78168,1.8966a2.98987,2.98987,0,0,1,1.51728,1.77017c.12644.50576.25288.88508.37932,1.39083.12644,0,.12644-.12643.25288-.12643a3.10574,3.10574,0,0,1,1.8966-.6322h.25288a1.38507,1.38507,0,0,1,1.01152,0c1.01152.25288,1.8966.37931,2.90812.6322.37931.12643.6322.12643,1.01151.25288a2.75295,2.75295,0,0,1,1.01152.6322,2.21962,2.21962,0,0,1,.6322.50576c.25288.25288.37932.50576.6322.75864,0-.12644.12644-.12644.12644-.25289a2.96549,2.96549,0,0,1,1.39084-1.39083c.12644,0,.25288-.25288.37932-.25288l.75864-.37932c1.138-.25288,2.40236-.50576,3.54032-.75864h.6322a2.97576,2.97576,0,0,1,1.01152.25288,2.24649,2.24649,0,0,1,1.2644.50576c.12644.12644.37932.25288.50576.37932a.4645.4645,0,0,1,.12644-.37932,2.82268,2.82268,0,0,1,.75864-1.64372c.12644-.12643.25288-.37932.37932-.50576a.9872.9872,0,0,1,.50576-.50576c1.01152-.6322,2.023-1.39084,3.03456-2.023a.96581.96581,0,0,1,.6322-.25288c.37932-.12644.75864-.12644,1.2644-.25288h.50576c.37932,0,.75864.12644,1.138.12644v-.25288a2.46558,2.46558,0,0,1,0-1.8966c0-.12644.12644-.25288,0-.37932a1.43573,1.43573,0,0,1,.37932-1.01152c.6322-.88508,1.2644-1.8966,1.8966-2.78168.12644-.25288.37932-.37932.50576-.50576a2.76384,2.76384,0,0,1,.6322-.37932,2.40908,2.40908,0,0,1,1.2644-.6322c.25288,0,.37932-.12644.6322-.12644v-.12644l-.12643-.12644a2.663,2.663,0,0,1-.6322-1.64372.76019.76019,0,0,0-.12644-.50576,2.784,2.784,0,0,1-.12644-1.01152,23.29708,23.29708,0,0,0,.6322-3.161c.12644-.50576.12644-.88508.6322-1.138.12644,0,.12644-.12644.12644-.25288a3.36371,3.36371,0,0,1,1.2644-1.39084c.12644,0,.12644-.12644.25288-.12644-1.01152-.75864-1.138-.75864-1.39084-1.2644a5.4976,5.4976,0,0,1-.50576-.88508.96581.96581,0,0,1-.25288-.6322,32.34141,32.34141,0,0,1-.6322-3.41388.9545.9545,0,0,1,.12644-1.01152.44146.44146,0,0,1,.12643-.25288,3.1002,3.1002,0,0,1,.75864-2.023v-.12644h-.37932a2.77538,2.77538,0,0,1-1.51728-.6322c-.12644-.12644-.25288-.25288-.37932-.25288a1.2949,1.2949,0,0,1-.75863-.6322,28.6161,28.6161,0,0,0-1.64372-2.5288c-.88508-.88508-1.138-1.2644-1.01153-1.8966v-.25288a2.46588,2.46588,0,0,1-.12644-1.64372c0-.12644.12644-.25288.12644-.50576a.4645.4645,0,0,0-.37932.12644,3.23212,3.23212,0,0,1-1.8966,0c-.25288-.25288-.37931-.12644-.6322-.25288s-.50576-.12644-.75863-.25288a23.80051,23.80051,0,0,1-2.90812-2.023l-.37932-.37932a4.41272,4.41272,0,0,1-.75864-1.138c-.12644-.25288-.25288-.37932-.25288-.6322-.12645-.25288-.12645-.6322-.25289-.88508-.12644,0-.12644.12644-.25288.12644a2.83933,2.83933,0,0,1-1.77015.75864c-.12644,0-.37932.12644-.50576.12644-.25288,0-.50576.12644-.75864,0a25.89621,25.89621,0,0,1-3.03456-.6322c-.37932-.12644-.75864-.12644-1.138-.25288a2.268,2.268,0,0,1-.88508-.6322c-.12644-.12644-.37932-.25288-.50576-.37932a3.84232,3.84232,0,0,1-.6322-.88508h-.12644l-.12644.12644a2.73533,2.73533,0,0,1-1.51728,1.39084c-.12644,0-.25288.12644-.37932.25288l-.75864.37932a30.10859,30.10859,0,0,1-3.28744.6322h-.75864c-.37932,0-.6322-.12644-.88508-.12644-.25288-.12644-.6322-.12644-.88508-.25288s-.50576-.37932-.75864-.50576l-.12644.12644v.25288a3.90753,3.90753,0,0,1-1.8966,2.78168,20.59371,20.59371,0,0,0-2.14948,1.39084,5.12507,5.12507,0,0,1-1.138.6322c-.37932.12644-.75864.12644-1.01152.25288-.25288,0-.50576.12644-.75864.12644-.37932,0-.75864-.12644-1.138-.12644v.25288a2.80751,2.80751,0,0,1-.12644,2.023v.37932c-.12644.25288-.12644.50576-.37932.75864-.50576.88508-1.2644,1.64372-1.77016,2.5288a3.67852,3.67852,0,0,1-2.14948,1.77016c-.37932.12644-.6322.12644-1.01152.25288v.12644c0,.12644.12644.12644.12644.25288a3.35817,3.35817,0,0,1,.6322,3.41388c-.12644.50576-.25288,1.138-.37932,1.64372-.12644.37932-.12644.88508-.25288,1.2644a3.467,3.467,0,0,1-1.8966,2.65524l-.25288.25288c.37932.25288.6322.50576.88508.6322a3.46992,3.46992,0,0,1,1.2644,2.27592,23.33737,23.33737,0,0,0,.50576,2.90812,3.5437,3.5437,0,0,1-.50576,3.161C-296.78652,340.14572-296.913,340.3986-296.913,340.525Z" transform="translate(300.32349 -304.41417)"/><path class="cls-1" d="M-274.02732,350.64023A19.75,19.75,0,0,1-293.752,330.9156,19.75,19.75,0,0,1-274.02732,311.191a19.75,19.75,0,0,1,19.72463,19.72464A19.75,19.75,0,0,1-274.02732,350.64023Zm0-38.43775A18.72544,18.72544,0,0,0-292.614,330.9156a18.72544,18.72544,0,0,0,18.58668,18.71311,18.75172,18.75172,0,0,0,18.71311-18.71311A18.67088,18.67088,0,0,0-274.02732,312.20248Z" transform="translate(300.32349 -304.41417)"/><polygon class="cls-2" points="13.273 21.697 13.652 23.34 15.675 22.202 15.675 32.444 17.698 32.444 17.698 20.179 16.055 20.179 13.273 21.697"/><path class="cls-2" d="M-272.63648,330.2834a3.23125,3.23125,0,0,0,1.77016-2.78168c0-1.51728-1.138-3.161-3.66676-3.161-2.27592,0-3.91964,1.39084-3.91964,3.41388a3.09593,3.09593,0,0,0,1.64372,2.65524,3.51032,3.51032,0,0,0-2.14948,3.161c0,1.64372,1.39084,3.41388,4.17251,3.41388,2.5288,0,4.299-1.51728,4.299-3.66676A3.48018,3.48018,0,0,0-272.63648,330.2834Zm-1.8966-.6322c-1.39084-.37932-2.023-1.01152-2.023-1.8966s.50576-1.64372,1.8966-1.64372a1.65358,1.65358,0,0,1,1.77016,1.77016C-272.88936,328.51324-273.39512,329.27188-274.53308,329.6512Zm2.023,3.91964a1.93494,1.93494,0,0,1-2.14948,1.8966,2.40367,2.40367,0,0,1-1.64372-.6322,1.90149,1.90149,0,0,1-.50576-1.39084,2.52036,2.52036,0,0,1,1.8966-2.27592C-273.26868,331.67424-272.51,332.43288-272.51,333.57084Z" transform="translate(300.32349 -304.41417)"/><polygon class="cls-2" points="36.917 25.616 36.917 21.823 35.4 21.823 35.4 25.616 31.733 25.616 31.733 27.007 35.4 27.007 35.4 30.8 36.917 30.8 36.917 27.007 40.457 27.007 40.457 25.616 36.917 25.616"/>
            </g>
        </symbol>
    </defs>
</svg>