
<?xml version="1.0" encoding="UTF-8"?>
<svg xmlns="http://www.w3.org/2000/svg">
    <defs>
        <symbol viewBox="0 0 512 512" id="beer-l">
            <g>
							<path d="M136,484c0,15.6,7.2,28,28,28h184c20,0,28-11.6,28-28v-78c0-11.5-6.4-22-13.5-30c7.1-8,13.5-18.5,13.5-30v-30
								c0-11.5-6.4-22-13.5-30c7.1-8,13.5-18.5,13.5-30v-30c0-11.5-6.4-22-13.5-30c7.1-8,13.5-13,13.5-20v-30c0-13.9-0.1-16.3-4.3-20.5
								L316,68.9V15c0-8.3-6.7-15-15-15h-90c-8.3,0-15,6.7-15,15v53.9l-55.7,56.6c-5,5-4.3,16.6-4.3,20.5v20c0,11.5,6.4,22,13.5,30
								c-7.1,8-13.5,18.5-13.5,30v30c0,11.5,6.4,22,13.5,30c-7.1,8-13.5,18.5-13.5,30v30c0,11.5,6.4,22,13.5,30c-7.1,8-13.5,18.5-13.5,30
								V484z M226,30h60v30h-60V30z M166,142.1L217.3,90h77.4l51.3,52.1V166c0,8.3-6.7,15-15,15H181c-8.3,0-15-6.7-15-15V142.1z M166,226
								c0-8.3,6.7-15,15-15h150c8.3,0,15,6.7,15,15v30c0,8.3-6.7,15-15,15H181c-8.3,0-15-6.7-15-15V226z M166,316c0-8.3,6.7-15,15-15h150
								c8.3,0,15,6.7,15,15v30c0,8.3-6.7,15-15,15H181c-8.3,0-15-6.7-15-15V316z M166,406c0-8.3,6.7-15,15-15h150c8.3,0,15,6.7,15,15v76
								H166V406z"/>
            </g>
        </symbol>
    </defs>
</svg>