<?xml version="1.0" encoding="UTF-8"?>
<svg xmlns="http://www.w3.org/2000/svg">
    <defs>
        <symbol viewBox="0 0 447.7455 238.97338" id="car">
            <g>
<path d="M-121.3362,249.63212l-50.52733-65.76122v-29.885a32.016,32.016,0,0,0-31.98157-31.98156H-534.88987a32.016,32.016,0,0,0-31.98157,31.98156V290.796a32.016,32.016,0,0,0,31.98157,31.98156h22.28049a46.83945,46.83945,0,0,0,45.96462,38.20021,46.83946,46.83946,0,0,0,45.96463-38.20021h137.1192a46.83851,46.83851,0,0,0,45.96106,38.20021,46.8404,46.8404,0,0,0,45.96817-38.20021h61.84524A10.65758,10.65758,0,0,0-119.12594,312.117v-55.989A10.6815,10.6815,0,0,0-121.3362,249.63212Zm-345.30853,90.02455a25.49635,25.49635,0,0,1-25.468-25.468,25.49636,25.49636,0,0,1,25.468-25.468,25.49636,25.49636,0,0,1,25.468,25.468A25.49635,25.49635,0,0,1-466.64473,339.65667Zm229.04489,0a25.49561,25.49561,0,0,1-25.46444-25.468,25.4956,25.4956,0,0,1,25.46444-25.468,25.4971,25.4971,0,0,1,25.47154,25.468A25.49711,25.49711,0,0,1-237.59984,339.65667Zm97.14933-38.2002H-192.6231a46.8318,46.8318,0,0,0-44.98029-34.05682,46.83819,46.83819,0,0,0-44.98029,34.05682H-421.66089a46.84248,46.84248,0,0,0-44.98385-34.05682,46.84249,46.84249,0,0,0-44.98386,34.05682h-23.2577A10.67355,10.67355,0,0,1-545.54683,290.796V153.9859a10.67355,10.67355,0,0,1,10.66053-10.66052h331.04478A10.67354,10.67354,0,0,1-193.181,153.9859v33.50958a10.67823,10.67823,0,0,0,2.20674,6.49581l50.52733,65.76121v41.704Z" transform="translate(566.87144 -122.00434)"/><path d="M-469.3987,161.651h-54.82707a10.65987,10.65987,0,0,0-10.66053,10.66053v49.01a10.65987,10.65987,0,0,0,10.66053,10.66053h54.82707a10.65986,10.65986,0,0,0,10.66052-10.66053v-49.01A10.65985,10.65985,0,0,0-469.3987,161.651Zm-10.66052,49.01h-33.506V182.97208h33.506Z" transform="translate(566.87144 -122.00434)"/><path d="M-385.1024,161.651h-54.82a10.65986,10.65986,0,0,0-10.66053,10.66053v49.01a10.65987,10.65987,0,0,0,10.66053,10.66053h54.82352a10.65987,10.65987,0,0,0,10.66052-10.66053v-49.01A10.66289,10.66289,0,0,0-385.1024,161.651Zm-10.66052,49.01h-33.49892V182.97208h33.50247V210.661Z" transform="translate(566.87144 -122.00434)"/><path d="M-300.80076,161.651h-54.82352a10.65987,10.65987,0,0,0-10.66052,10.66053v49.01a10.65987,10.65987,0,0,0,10.66052,10.66053h54.82352a10.6576,10.6576,0,0,0,10.66052-10.66053v-49.01A10.65532,10.65532,0,0,0-300.80076,161.651Zm-10.66052,49.01h-33.50248V182.97208h33.50248Z" transform="translate(566.87144 -122.00434)"/><path d="M-214.53761,161.651h-54.82352a10.66214,10.66214,0,0,0-10.66052,10.66053v49.01a10.66215,10.66215,0,0,0,10.66052,10.66053h54.82352a10.6576,10.6576,0,0,0,10.66052-10.66053v-49.01A10.65759,10.65759,0,0,0-214.53761,161.651Zm-10.66052,49.01h-33.50248V182.97208h33.50248Z" transform="translate(566.87144 -122.00434)"/><path d="M-121.3362,249.63212l-50.52733-65.76122v-29.885a32.016,32.016,0,0,0-31.98157-31.98156H-534.88987a32.016,32.016,0,0,0-31.98157,31.98156V290.796a32.016,32.016,0,0,0,31.98157,31.98156h22.28049a46.83945,46.83945,0,0,0,45.96462,38.20021,46.83946,46.83946,0,0,0,45.96463-38.20021h137.1192a46.83851,46.83851,0,0,0,45.96106,38.20021,46.8404,46.8404,0,0,0,45.96817-38.20021h61.84524A10.65758,10.65758,0,0,0-119.12594,312.117v-55.989A10.6815,10.6815,0,0,0-121.3362,249.63212Zm-345.30853,90.02455a25.49635,25.49635,0,0,1-25.468-25.468,25.49636,25.49636,0,0,1,25.468-25.468,25.49636,25.49636,0,0,1,25.468,25.468A25.49635,25.49635,0,0,1-466.64473,339.65667Zm229.04489,0a25.49561,25.49561,0,0,1-25.46444-25.468,25.4956,25.4956,0,0,1,25.46444-25.468,25.4971,25.4971,0,0,1,25.47154,25.468A25.49711,25.49711,0,0,1-237.59984,339.65667Zm97.14933-38.2002H-192.6231a46.8318,46.8318,0,0,0-44.98029-34.05682,46.83819,46.83819,0,0,0-44.98029,34.05682H-421.66089a46.84248,46.84248,0,0,0-44.98385-34.05682,46.84249,46.84249,0,0,0-44.98386,34.05682h-23.2577A10.67355,10.67355,0,0,1-545.54683,290.796V153.9859a10.67355,10.67355,0,0,1,10.66053-10.66052h331.04478A10.67354,10.67354,0,0,1-193.181,153.9859v33.50958a10.67823,10.67823,0,0,0,2.20674,6.49581l50.52733,65.76121v41.704Z" transform="translate(566.87144 -122.00434)"/><path d="M-469.3987,161.651h-54.82707a10.65987,10.65987,0,0,0-10.66053,10.66053v49.01a10.65987,10.65987,0,0,0,10.66053,10.66053h54.82707a10.65986,10.65986,0,0,0,10.66052-10.66053v-49.01A10.65985,10.65985,0,0,0-469.3987,161.651Zm-10.66052,49.01h-33.506V182.97208h33.506Z" transform="translate(566.87144 -122.00434)"/><path d="M-385.1024,161.651h-54.82a10.65986,10.65986,0,0,0-10.66053,10.66053v49.01a10.65987,10.65987,0,0,0,10.66053,10.66053h54.82352a10.65987,10.65987,0,0,0,10.66052-10.66053v-49.01A10.66289,10.66289,0,0,0-385.1024,161.651Zm-10.66052,49.01h-33.49892V182.97208h33.50247V210.661Z" transform="translate(566.87144 -122.00434)"/><path d="M-300.80076,161.651h-54.82352a10.65987,10.65987,0,0,0-10.66052,10.66053v49.01a10.65987,10.65987,0,0,0,10.66052,10.66053h54.82352a10.6576,10.6576,0,0,0,10.66052-10.66053v-49.01A10.65532,10.65532,0,0,0-300.80076,161.651Zm-10.66052,49.01h-33.50248V182.97208h33.50248Z" transform="translate(566.87144 -122.00434)"/><path d="M-214.53761,161.651h-54.82352a10.66214,10.66214,0,0,0-10.66052,10.66053v49.01a10.66215,10.66215,0,0,0,10.66052,10.66053h54.82352a10.6576,10.6576,0,0,0,10.66052-10.66053v-49.01A10.65759,10.65759,0,0,0-214.53761,161.651Zm-10.66052,49.01h-33.50248V182.97208h33.50248Z" transform="translate(566.87144 -122.00434)"/>
            </g>
        </symbol>
    </defs>
</svg>