<?xml version="1.0" encoding="UTF-8"?>
<svg xmlns="http://www.w3.org/2000/svg">
    <defs>
        <symbol viewBox="0 0 53.1 53.19805" id="beer-circl">
            <g>
<path d="M-436.66365,448.72624h0a2.8104,2.8104,0,0,1-2.8004-2.67865h0a2.70242,2.70242,0,0,1,2.67865-2.67864h0a2.70241,2.70241,0,0,1,2.67864,2.67864h0A2.526,2.526,0,0,1-436.66365,448.72624Z" transform="translate(448.20866 -442.65188)"/><path class="cls-1" d="M-444.69959,448.72624h0A2.73037,2.73037,0,0,1-447.5,446.04759h0a2.70242,2.70242,0,0,1,2.67865-2.67864h0a2.56224,2.56224,0,0,1,2.8004,2.55689h0A2.73036,2.73036,0,0,1-444.69959,448.72624Z" transform="translate(448.20866 -442.65188)"/><path class="cls-1" d="M-428.6277,448.72624h0a2.81041,2.81041,0,0,1-2.80041-2.67865h0a2.70242,2.70242,0,0,1,2.67865-2.67864h0a2.70242,2.70242,0,0,1,2.67865,2.67864h0A2.39656,2.39656,0,0,1-428.6277,448.72624Z" transform="translate(448.20866 -442.65188)"/><path class="cls-1" d="M-436.66365,456.76219h0a2.81041,2.81041,0,0,1-2.8004-2.67865h0a2.70242,2.70242,0,0,1,2.67864-2.67865h0a2.70243,2.70243,0,0,1,2.67865,2.67865h0A2.526,2.526,0,0,1-436.66365,456.76219Z" transform="translate(448.20866 -442.65188)"/><path class="cls-1" d="M-444.69959,456.76219h0A2.81041,2.81041,0,0,1-447.5,454.08354h0a2.70243,2.70243,0,0,1,2.67865-2.67865h0a2.56224,2.56224,0,0,1,2.8004,2.55689h0A2.73036,2.73036,0,0,1-444.69959,456.76219Z" transform="translate(448.20866 -442.65188)"/><path class="cls-1" d="M-428.6277,456.76219h0a2.81042,2.81042,0,0,1-2.80041-2.67865h0a2.70243,2.70243,0,0,1,2.67865-2.67865h0a2.70243,2.70243,0,0,1,2.67865,2.67865h0A2.39657,2.39657,0,0,1-428.6277,456.76219Z" transform="translate(448.20866 -442.65188)"/>
            </g>
        </symbol>
    </defs>
</svg>