<?xml version="1.0" encoding="UTF-8"?>
<svg xmlns="http://www.w3.org/2000/svg">
    <defs>
        <symbol viewBox="0 0 32.45 37.37" id="cople-ico">
            <g fill-rule="evenodd">
                <path d="M19.75,8,17.68,5.6a1.55,1.55,0,0,0-2.55.12c-.49.61-1.1,1.34-1.71,2.07l-.48.61L12,7.3c-.85-1.09-1.7-2.19-2.55-3.16A1.73,1.73,0,0,0,8,3.29,1.26,1.26,0,0,0,7,3.9c-.49.6-.85,1.21-1.34,1.7C3.93,7.67,2.35,9.86.88,12.05c-1.46,2.44-1.09,5.24,1,7.79a9.9,9.9,0,0,0,1.58,1.59l.49.48a7.1,7.1,0,0,1-.12,1.59,13.24,13.24,0,0,0,.12,3.89A11.91,11.91,0,0,0,13.67,37a14.18,14.18,0,0,0,3.16.36c3.9,0,7.18-1.7,9.86-5.23a11.6,11.6,0,0,0,1.1-13C25.72,15,22.68,11.44,19.75,8ZM6.48,23c.37,0,.73-.12,1.1-.12a22.42,22.42,0,0,0,2.92-.37,7.69,7.69,0,0,0,4.87-4.26,7.14,7.14,0,0,0-.12-6.09c-.73-1.34-.61-2.07.36-2.8a3.21,3.21,0,0,0,.86-1V8.28c.48.61,1.09,1.34,1.58,2,2.92,3.4,5.6,6.57,7.55,10.47a9.66,9.66,0,0,1-3.53,12.41A10,10,0,0,1,9.16,31.53,9.77,9.77,0,0,1,6.48,23ZM11,19.36A5.34,5.34,0,0,1,4.41,19a4.72,4.72,0,0,1-1-6.09c1-1.7,2.07-3.16,3.17-4.74.48-.61.85-1.22,1.34-1.83h.12c.48.73,1,1.34,1.46,1.95,1.09,1.58,2.31,3.29,3.28,5A4.67,4.67,0,0,1,11,19.36Z"/><path d="M31.81,5.36a30.83,30.83,0,0,0-2.32-3.29,9.39,9.39,0,0,1-1-1.34A1.49,1.49,0,0,0,26,.73c-.24.37-.61.73-.85,1.1a38.35,38.35,0,0,0-2.56,3.65,4.88,4.88,0,0,0,.13,5A5.3,5.3,0,0,0,27.18,13h.12a4.92,4.92,0,0,0,4.51-2.68A5.2,5.2,0,0,0,31.81,5.36ZM25,6.45A14.93,14.93,0,0,1,26.69,4a3.33,3.33,0,0,1,.61-.73c.25.24.37.48.61.73.61.85,1.22,1.58,1.71,2.43A2.5,2.5,0,0,1,29,9.86a2.93,2.93,0,0,1-3.41,0A2.51,2.51,0,0,1,25,6.45Z"/>
            </g>
        </symbol>
        <symbol viewBox="0 0 497.75 551.55" id="more-circle-ico">
            <g fill-rule="evenodd">
                <path style="isolation:isolate;" d="M222,551.55C122.3,551.55,51.16,521,4.47,458.09a22.68,22.68,0,0,1,36.42-27C78.94,482.32,136.48,506.2,222,506.2c127,0,230.42-103.37,230.42-230.42S349,45.35,222,45.35c-79.43,0-130.32,21.93-170.18,73.32A22.68,22.68,0,1,1,16,90.88C41.2,58.34,70.64,35.29,106,20.44,138.68,6.68,176.62,0,222,0A275.79,275.79,0,0,1,417,470.79,274,274,0,0,1,222,551.55Z"/>
            </g>
        </symbol>
        <symbol viewBox="0 0 348.59 207.29" id="more-arrow-ico">
            <g fill-rule="evenodd">
                <path d="M328.74,119.49H19.84a19.85,19.85,0,0,1,0-39.69h308.9a19.85,19.85,0,0,1,0,39.69Z"/><path d="M328.74,118.79a19.79,19.79,0,0,1-13.19-5l-88.9-79.1A19.84,19.84,0,0,1,253,5l88.9,79.1a19.84,19.84,0,0,1-13.19,34.67Z"/><path class="cls-1" d="M240.34,207.29a19.85,19.85,0,0,1-14-33.87l88.4-88.5A19.84,19.84,0,1,1,342.78,113l-88.4,88.5A19.78,19.78,0,0,1,240.34,207.29Z"/>
            </g>
        </symbol>
        <symbol viewBox="0 0 21 21" id="cople-plus-ico">
            <g fill-rule="evenodd">
                <path d="M10.5,2.1a8.4,8.4,0,1,1-8.4,8.4A8.41,8.41,0,0,1,10.5,2.1Zm0,18.9a10.5,10.5,0,0,0,0-21H2.1A2.11,2.11,0,0,0,0,2.1v8.4A10.52,10.52,0,0,0,10.5,21ZM9.45,14.75h2.1v-3.2h3.2V9.45h-3.2V6.25H9.45v3.2H6.25v2.1h3.2Z"/>
            </g>
        </symbol>
        <symbol viewBox="0 0 25.71 34.63" id="butils-ico">
            <g fill-rule="evenodd">
                <path style="stroke-miterlimit:10;stroke-width:0.5px;" d="M13.92.25a1.39,1.39,0,0,1,.94,1.5c0,4.19,0,8.38,0,12.57,0,.39.13.56.52.61a1.72,1.72,0,0,0,0-.32,4.52,4.52,0,0,1,.8-2.92c.26-.41.5-.82.79-1.2a2.23,2.23,0,0,0,.53-1.35c.1-1.53.24-3.05.35-4.58a.66.66,0,0,0-.17-.42,1.58,1.58,0,0,1-.31-1.58,1.16,1.16,0,0,1,1.2-.71h3a1.13,1.13,0,0,1,1.16.72,1.44,1.44,0,0,1-.31,1.51.45.45,0,0,0-.18.46c.14,1.71.27,3.43.42,5.15a1,1,0,0,0,.17.38c.52.84,1.09,1.65,1.54,2.52a3.56,3.56,0,0,1,.34,1.47c0,1.59,0,3.18,0,4.77a.47.47,0,0,0,.23.46,1.16,1.16,0,0,1,.5,1.09V33a1.21,1.21,0,0,1-1.38,1.36H1.62A1.21,1.21,0,0,1,.25,33V20.41a1.3,1.3,0,0,1,.67-1.25.42.42,0,0,0,.14-.32c0-1.4.05-2.8,0-4.2a5,5,0,0,1,.85-3,12.08,12.08,0,0,1,.85-1.26A2,2,0,0,0,3.18,9.2c.12-1.57.25-3.14.37-4.71a.5.5,0,0,0-.14-.33,1.49,1.49,0,0,1-.36-1.57,1.15,1.15,0,0,1,1.21-.74H7.2a1.15,1.15,0,0,1,1.2.71,1.53,1.53,0,0,1-.32,1.58.46.46,0,0,0-.17.45c.12,1.68.23,3.35.36,5a1.18,1.18,0,0,0,.19.48c.5.8,1,1.59,1.5,2.4a3,3,0,0,1,.38,1.67c0,.23,0,.46,0,.7.32,0,.41-.15.41-.46,0-4.2,0-8.4,0-12.59A1.44,1.44,0,0,1,11.66.25Zm10.33,20L14.93,16c0,.1,0,.18,0,.25a1.19,1.19,0,0,1-1.27,1.18c-.57,0-1.14,0-1.7,0a1.15,1.15,0,0,1-1.13-1.06,3.48,3.48,0,0,1,0-.36l-.38.16C7.64,17.46,4.88,18.74,2.1,20c-.57.24-.78.52-.71,1.12a14.76,14.76,0,0,1,0,1.63H24.25ZM1.45,33.18H24.24V28.74H1.45Zm0-5.66H24.22V23.94H1.45ZM18.86,7.4c-.07.83-.15,1.63-.2,2.42a1.51,1.51,0,0,1-.32.89c-.35.46-.67.94-1,1.42a3.66,3.66,0,0,0-.76,2.55,2,2,0,0,1,0,.54c0,.23.07.34.29.44l6.34,2.85.32.12c0-1.55,0-3,0-4.55a2.46,2.46,0,0,0-.28-1.1c-.46-.8-1-1.55-1.48-2.33a1.49,1.49,0,0,1-.25-.63c-.09-.77-.14-1.55-.2-2.32,0-.16,0-.31-.25-.3ZM2.26,18.6,9,15.53a.36.36,0,0,0,.16-.22,4.48,4.48,0,0,0-.69-3.14c-.31-.41-.56-.88-.89-1.28a2.16,2.16,0,0,1-.5-1.37c0-.71-.11-1.41-.17-2.11H4.51c-.06.77-.14,1.52-.18,2.27A1.91,1.91,0,0,1,4,10.76a10.11,10.11,0,0,0-1,1.39,4.23,4.23,0,0,0-.7,1.63C2.2,15.36,2.26,17,2.26,18.6Zm11.43-2.3V1.83a1.2,1.2,0,0,0,0-.27c0-.06-.08-.15-.13-.15-.52,0-1,0-1.54,0V16.3ZM6.7,4.41H4.75L4.61,6.16H6.85Zm12.4,0L19,6.18h2.19l-.11-1.73H19.1Zm2.51-1.28V3.09h-3.1v.07ZM4.2,3.08v.06H7.3V3.08Z"/>
            </g>
        </symbol>
		<symbol viewBox="0 0 512 512" id="solod-ico">
            <g fill-rule="evenodd">
                <path class="st0" d="M82.3,222.3l-12.6,37.8l21.3,7.1c-7.9,11.8-14.2,24.6-18.8,38.3l-12.6,37.8L97.3,356c3.2,1.1,6.4,2,9.7,2.9
				c-5.7,21.6-5.7,44.4-0.2,71.5l8,39.1l39.1-8c27.1-5.5,48.1-14.4,65.7-28.2c2.1,2.7,4.2,5.3,6.4,7.8l26.4,29.8l29.8-26.4
				c10.8-9.6,20.1-20.4,27.9-32.3l14.9,16.9l29.8-26.4c15.9-14,28.8-31.1,37.9-50.1l14.7,9.7l22.2-33.5
				c44.5-67.2,32.8-157.7-28.7-210.4l33.8-51.1l-75.1-49.7l-33.8,51.1c-72.5-35.9-160.4-11.4-204.9,55.9l-22.2,33.5l14.7,9.7
				C99.7,183.7,89,202.2,82.3,222.3L82.3,222.3z M110.7,231.9c5.9-17.7,15.6-33.9,28.3-47.4c20.7,12.2,44.1,19.5,68,21.6
				c-3.8,12.4-6,25.1-6.7,38c-26.9,9.2-56.2,9.4-83.3,0.3l-9.3-3.1L110.7,231.9z M261.6,324.9c-18.1,18.5-41.6,31.5-67.1,36.6l-9.7,2
				l-2-9.7c-5.2-25.4-2.5-52.2,7.5-76.1c3.7-0.8,7.4-1.7,11.1-2.7c0.5,3.2,1,6.5,1.7,9.7l8,39.1l39.1-8c3.2-0.7,6.4-1.4,9.6-2.3
				C260.3,317.4,260.9,321.1,261.6,324.9z M244.2,286.4l-9.7,2l-2-9.7c-5-24.4-2.7-50.1,6.3-73.2c4.6-0.5,9.2-1.2,13.7-2.2
				c18.4-3.7,35.9-10.8,51.9-20.7c-2.9,18.5-2.5,37.4,1.2,55.8c0.9,4.6,2.1,9,3.4,13.5C291.4,269.3,268.6,281.5,244.2,286.4
				L244.2,286.4z M106.9,327.6l-9.3-3.1l3.1-9.3c4.7-14,11.6-26.9,20.6-38.4c11.9,2.8,24.1,4.3,36.2,4.3c-5.2,17.2-7.6,35.2-6.9,53.2
				C135.7,334.5,120.8,332.3,106.9,327.6z M147.8,432.1l-9.7,2l-2-9.7c-4.9-23.8-4.7-42.6,0.6-60.6c5.9,0.4,11.8,0.5,17.6,0.3l7.1,34.7
				l34.7-7.1c2.1,5.5,4.5,10.9,7.2,16.1C188.9,419.8,171.6,427.3,147.8,432.1L147.8,432.1z M262.4,422.1l-7.4,6.5l-6.5-7.4
				c-9.8-11-17.7-23.8-23.2-37.5c16.8-6.4,32.5-15.6,46.3-27.2c4.8,11.1,10.9,21.7,18.1,31.6C282.6,401,273.4,412.3,262.4,422.1
				L262.4,422.1z M335,380.2l-7.4,6.5l-6.5-7.4c-19-21.5-30.3-48.4-32.3-76.8c11.6-5.7,22.5-12.8,32.4-21.1
				c11.2,21.3,27.1,39.9,46.4,54.2C360.1,352.6,349,367.9,335,380.2z M404.7,312.3l-5.6,8.5l-8.5-5.6c-28.4-18.8-48.6-48.9-55.4-82.6
				c-6.8-33.5,0.3-69.4,19.5-98.4l5.4-8.2l8.2,5.4C428.9,171.4,444.2,252.4,404.7,312.3z M368.2,59.2l25,16.6l-16.6,25l-25-16.6
				L368.2,59.2z M146.1,141.2c39.6-59.8,120.2-77.4,180.8-37.3l8.2,5.4l-5.4,8.2c-19.2,29-49.4,49.6-83,56.4
				c-33.8,6.9-69.4,0.1-97.7-18.7l-8.5-5.6L146.1,141.2z"/>
            </g>
        </symbol>
    </defs>
</svg>
