<svg xmlns="http://www.w3.org/2000/svg" viewBox="0 0 214.04 209.3"><defs><style>.cls-1{fill:#4d8c3f;}.cls-2,.cls-5,.cls-8{fill:#fff;}.cls-3,.cls-6{fill:#c20d19;}.cls-4,.cls-7{fill:#c5c5c5;}.cls-5{stroke:#c5c5c5;stroke-miterlimit:10;}.cls-6,.cls-7,.cls-8{fill-rule:evenodd;}</style></defs><title>logo-vectr</title><g id="Слой_2" data-name="Слой 2"><g id="Слой_1-2" data-name="Слой 1"><path class="cls-1" d="M107,205.25a100.61,100.61,0,1,1,100.58-100.6A100.72,100.72,0,0,1,107,205.25Zm0-176.42a75.82,75.82,0,1,0,75.8,75.82A75.91,75.91,0,0,0,107,28.83Z"/><path class="cls-1" d="M107,209.3A104.65,104.65,0,1,1,211.66,104.65,104.77,104.77,0,0,1,107,209.3ZM107,8.09a96.56,96.56,0,1,0,96.54,96.56A96.67,96.67,0,0,0,107,8.09Zm0,176.42a79.87,79.87,0,1,1,79.85-79.86A80,80,0,0,1,107,184.51Zm0-151.64a71.77,71.77,0,1,0,71.75,71.78A71.87,71.87,0,0,0,107,32.87Z"/><circle class="cls-2" cx="107.54" cy="106.24" r="75.13"/><path class="cls-3" d="M107,4A100.52,100.52,0,0,0,7.94,121.92H33.22a75.81,75.81,0,1,1,147.6,0H206.1A100.52,100.52,0,0,0,107,4Z"/><path class="cls-2" d="M107,4.05A100.6,100.6,0,1,1,6.43,104.65,100.7,100.7,0,0,1,107,4.05m0,176.42A75.82,75.82,0,1,0,31.2,104.65,75.9,75.9,0,0,0,107,180.47M107,.41A104.24,104.24,0,1,0,211.25,104.65,104.24,104.24,0,0,0,107,.41Zm0,176.42a72.18,72.18,0,1,1,72.16-72.18A72.19,72.19,0,0,1,107,176.83Z"/><path class="cls-4" d="M42.51,154.13,41.28,153a5,5,0,0,1-1.46-3.64l-2,.48.81-3.83a6.7,6.7,0,0,1,1.6-3.16,5,5,0,0,1-1.16.42l-2.44.54-.27-1.25c-1.11.61-2.36,1.21-3.79,1.83l-1.9.81-1.15-1.72c0-.06-.07-.12-.11-.17a12.71,12.71,0,0,0-2,1.1L24.75,146l-.47-.87c-.5.59-1,1.19-1.59,1.8l-2.9,3.19L18.49,146c-.1-.3-.19-.63-.28-1a23.14,23.14,0,0,0-8.55,5.24l-4.11,3.63v-5.49c0-8.87,1.33-14.36,4.25-17.3.25-.23.5-.46.75-.65a18.64,18.64,0,0,1-4.24-3.82A32.32,32.32,0,0,1,.36,115L0,113.63l1-1a5.91,5.91,0,0,1,4.37-1.54h0l-.12-.9,1.92-.84a20.42,20.42,0,0,1-2.47-6.54l-.32-1.86,1.44-.68-.25-.62a14.41,14.41,0,0,1-1.4-7.13l.09-1.43,1.28-.63a12.27,12.27,0,0,1,5.31-1.06,16.47,16.47,0,0,1,4.59.64,15.07,15.07,0,0,1,0-2.87l.11-1.42,1.27-.62a9.88,9.88,0,0,1,4.41-.9,16.09,16.09,0,0,1,5,.82s.57-2.37.57-2.37l2.33.44a27.45,27.45,0,0,1,7,2.43,25.84,25.84,0,0,1,1.09-2.46l2-3.67L41.43,83a14.78,14.78,0,0,0,2.91,3.12,4.54,4.54,0,0,1,1-.91l.82-.56.43.07A18,18,0,0,1,47.77,79l.59-1.55,2,0H51a10,10,0,0,1,1.35-4.61c.13-.22.25-.47.36-.7l.8-1.72,1.88.33a12.31,12.31,0,0,1,6.13,2.69,6.15,6.15,0,0,1,.92-.92l1-.81,1.26.37a11.29,11.29,0,0,1,6,4l.49-.19,1.91-.68,1,1.74c.23.36.5.68.75,1a11.92,11.92,0,0,1,1.46,2.21,31.83,31.83,0,0,1,5.31.62l.23-1.52,2.18.05a10.59,10.59,0,0,1,7.37,3.12c0-5.93,3.21-11,8.41-12.68l1.44-.47.87.86a10.37,10.37,0,0,1,4-2.91l.93-.38.92.38a10.26,10.26,0,0,1,4,2.91l.88-.86,1.42.47c5.2,1.7,8.36,6.75,8.41,12.68A10.61,10.61,0,0,1,130,79.29l2.19-.05.23,1.52a31.58,31.58,0,0,1,5.3-.62,12,12,0,0,1,1.46-2.22,9.49,9.49,0,0,0,.74-1L141,75.17l1.91.68.48.19a11.29,11.29,0,0,1,6-4l1.25-.37,1,.81a6.07,6.07,0,0,1,.91.92,12.34,12.34,0,0,1,6.14-2.69l1.87-.33.8,1.72c.12.23.24.46.35.7a9.91,9.91,0,0,1,1.37,4.61h.58l2,0,.6,1.54a18.34,18.34,0,0,1,1.2,5.71l.41-.07.83.56a4.35,4.35,0,0,1,1,1,7.52,7.52,0,0,0,2-2.12L174,80.46l2.19,4c.41.71.82,1.47,1.22,2.26A28.09,28.09,0,0,1,184.93,84l2.36-.27.46,1.91a16,16,0,0,1,5.07-.85,9.82,9.82,0,0,1,4.39.9l1.28.62.11,1.42c0,.48.05.95.05,1.4a16.08,16.08,0,0,1,3.14-.3,12.33,12.33,0,0,1,5.32,1.07l1.28.62.09,1.43A14.33,14.33,0,0,1,207.07,99l-2.32-.86,2.29.93-.22.53,1.09.49,1.7.81-.31,1.86a22.48,22.48,0,0,1-3,7.45l-2.2-1.14,1.87,1.06c.21.08.41.15.6.24l1.52.68h.55a5.92,5.92,0,0,1,4.38,1.54l1,1-.37,1.38a32.18,32.18,0,0,1-5.95,11.66,18.44,18.44,0,0,1-4.24,3.82,7.59,7.59,0,0,1,.75.65c2.93,2.94,4.28,8.43,4.26,17.3v5.49l-4.11-3.63a23.1,23.1,0,0,0-8.56-5.24c-.08.34-.17.67-.27,1l-1.3,4.12-2.9-3.19q-.84-.92-1.59-1.8l-.47.87-2.62-1.59a13.23,13.23,0,0,0-2-1.1l-.11.17-1.14,1.72-1.9-.81c-1.42-.62-2.67-1.22-3.79-1.83l-.26,1.25L175,143.3a5,5,0,0,1-1.18-.42,6.81,6.81,0,0,1,1.62,3.16l.8,3.83-2-.48a4.94,4.94,0,0,1-1.45,3.64l-1.24,1.1-1.49-.71a11.17,11.17,0,0,1-1.8-1.14c-.45-.32-1.3-.92-1.47-1l-1.09.56-1.11-.54a10.16,10.16,0,0,1-3-2.33l-1.08.92-1.61-1.57c-.34-.31-.7-.59-1.08-.88a11.81,11.81,0,0,1-2.4-2.29l-2.54.47c-.73.13-1.44.33-2.14.52a18.13,18.13,0,0,1-4.88.85h-.1l-.15,1.88-2.94-.79a32.22,32.22,0,0,1-4.11-1.31l-.06,1.2-3.51-2a20.19,20.19,0,0,1-5.16-4.16,11.47,11.47,0,0,1-2,2.6l-.85.76-1.12-.15-.37-.07a11.67,11.67,0,0,1-5.43,2.37l-3.44.57.28-1.66a22.2,22.2,0,0,1-5.38-.85l-2.27-.53.22-1.24a3.43,3.43,0,0,0-.93.35l-1.41,1-1.42-1a3.4,3.4,0,0,0-.93-.36l.22,1.24-2.28.53a22.61,22.61,0,0,1-5.38.85l.3,1.66-3.48-.57A11.67,11.67,0,0,1,88.63,145l-.36.07-1.13.15-.85-.76a11.41,11.41,0,0,1-2-2.6A20.19,20.19,0,0,1,79.09,146l-3.54,2-.06-1.21a30.92,30.92,0,0,1-4.09,1.3l-.05,0-2.95.8L68.29,147h-.08a18.13,18.13,0,0,1-4.87-.85c-.71-.19-1.42-.39-2.14-.52l-2.54-.47a12.08,12.08,0,0,1-2.4,2.29c-.37.29-.75.57-1.09.89l-1.61,1.56L52.47,149a9.93,9.93,0,0,1-3,2.33l-.95.57-1.09-.56a6.73,6.73,0,0,0-1.62,1A11.36,11.36,0,0,1,44,153.42Z"/><path class="cls-2" d="M19.19,69.65l-.36.85c-.38.9-1,1.57,1,3.24,1,.84,1.74,1.09,1.49,1.67-.34.82-3.63.27-4.88-.25A.85.85,0,0,1,16.07,74c.47-1.11.38-.33.92-1.45a14.44,14.44,0,0,0,.77-1.81l2.48-5.89A14.88,14.88,0,0,0,21,63c.42-1.18-.07-.57.4-1.67a.85.85,0,0,1,1.12-.56c1.25.53,3.94,2.5,3.61,3.31-.23.51-.72.3-2.24.1-2.47-.3-2.65.65-3,1.54l-.36.85L32.7,71.71l.69-1.65.83.35-2.67,6.36-.84-.35.69-1.64Z"/><path class="cls-2" d="M38.69,54l2.94,2.3.92-1.17.71.56-4.09,5.19-.71-.56L39.57,59,29.14,50.77,28,52.17l-.71-.55,4.08-5.2.71.55-.91,1.17,6.38,5-1.65-7.35L34.14,44.4l-.92,1.17L32.5,45l4.09-5.2.71.56-1.11,1.4L46.63,50l1.11-1.41.7.57-4.09,5.19-.7-.56.91-1.17-7.5-5.89Z"/><path class="cls-2" d="M52.53,31.93c-.88-3.08-1.38-5,.79-6.67.62-.46,1.89-1,2.09-.73.35.46,0,1.37.65,2.19a1.63,1.63,0,0,1,.37.61l-.49.38a2.57,2.57,0,0,0-1.84.46c-.79.59-1.05,1.36-.29,4.25l9,3.8,1.47-1.09.54.72-6.15,4.61-.54-.72,1.64-1.23L53.68,36l.44,2.66c.39,2.43.82,2.72.89,2.82.35.47,1.05-.1,1.53-.52l.54.73L52.9,44.78l-.54-.72c2-1.26,1.06-3.59.65-5.69l-.56-2.9-6.88-2.89-1.14.85-.54-.73,5.37-4,.54.72-1.27,1Z"/><path class="cls-2" d="M71.67,16.66c2.17.88,5.32,1.19,6.72,4.52,1.15,2.72.28,4.52-1.16,7.93-.58,1.38-.75,1.81-1.11,2s-.66,0-2.2-.45c-3.19-1-5.21-1.66-6.4-4.47-1.3-3.08,0-6.2,1.14-8.15.54-.95.67-1.69,1.24-1.93C70.29,15.92,70.84,16.34,71.67,16.66Zm-3.14,6.51c.5,1.17,1.87,2,3.46,2.7,2.74,1.25,3.45,1.16,4,2.22a4.24,4.24,0,0,0,1.32-3.78,2.13,2.13,0,0,0-.28-.68c-.63-1-2.14-1.64-4.21-2.61s-2.63-1.18-3.16-1.77A3.24,3.24,0,0,0,68.53,23.17Z"/><path class="cls-2" d="M92.93,24.6l1.77-.28.13.88L88,26.29l-.14-.89,1.76-.28L88.4,17.35c-.14-.87-.27-1.72-.45-3.24A5.5,5.5,0,0,1,92.55,10c3.18-.51,5.63.78,6,3.4.34,2.08-.63,4.32-2.93,4.68a4.18,4.18,0,0,1-2.33-.42l-1.16,2.14Zm.12-8a1.84,1.84,0,0,0,.85.23c.52-.08,1.3-.64.95-2.87-.24-1.51-.72-3.29-2.31-3-1.92.31-1.29,3.13-1,4.74L92,18.54Z"/><path class="cls-2" d="M115.56,17.16a1.63,1.63,0,0,0-1.23-1.4,3.33,3.33,0,0,0-2.51.77c.22,3.87.84,3.73.63,6a2.64,2.64,0,0,1-.31,1.11,1.61,1.61,0,0,0,.78.22A3.83,3.83,0,0,0,117.18,21l-1.07-.09.08-.88,5.61.5-.08.88-.79-.05a7.66,7.66,0,0,1-6.61,3.54,15,15,0,0,1-3.48-.71,4.26,4.26,0,0,0-1-3.51c-1.68-2.47-2-3.39-1.88-5.11.51-5.8,5.44-6.47,7.92-6.25,2,.18,4.83,1.09,5.64,3.88l1,.1-.09.9-5.3-.47.07-.9.67.06a2.78,2.78,0,0,0-2.61-2.72c-2.78-.24-3.35,3.33-3.5,5,0,.17,0,.34,0,.51a5.32,5.32,0,0,1,3.69-1,4.12,4.12,0,0,1,3.68,2.82l.87.08-.07.9L114.68,18l.09-.9Z"/><path class="cls-2" d="M146.55,18.53l-1.67-.63-4.65,12.4.69.26c1.1.41,1.54.37,2,.54a1,1,0,0,1,.51,1.43C143,33.7,141,37,140.07,36.66c-.56-.21-.31-.89-.16-2.37.22-2.24.12-3.1-1.75-3.8l-10.53-3.95.33-.84,1.66.62,4.65-12.4-1.66-.62.31-.85,6.18,2.32-.32.84-1.39-.52-4.64,12.4,4.36,1.64,4.66-12.4-1.39-.52.31-.84,6.18,2.31Z"/><path class="cls-2" d="M158.26,32.15l.6-.31c1.53-.78,5.49-3.86,7.83-2.16A4.63,4.63,0,0,1,168,31.11a5.85,5.85,0,0,0-2.22,2l-.35-.25a4.58,4.58,0,0,0-1.18-1.53c-1.09-.79-2.55,0-5.4,1.5a3.22,3.22,0,0,0,.24.28c1.07,1.27,3.72,4.32.34,9.13l1,.76-.53.73-4.74-3.44.53-.73.67.5c2.54-3.09,3.06-5.31.77-7.8l-4,5.47,1.07.78-.52.73-5.23-3.78.53-.73,1.45,1.05,7.78-10.73-1.45-1,.52-.73,5.36,3.87-.54.74L161,27l-3.38,4.64Z"/><path class="cls-2" d="M171.49,49.24l-2.89,2.34.93,1.16-.7.56-4.15-5.12.7-.57L166.5,49l10.28-8.35-1.12-1.38.7-.57,4.16,5.13-.7.56-.95-1.15-6.28,5.1,7.51,0,1.76-1.43-.93-1.15.7-.57,4.17,5.12-.7.57L184,49.51l-10.28,8.35,1.13,1.38-.71.57L170,54.69l.7-.57.93,1.15,7.39-6Z"/><path class="cls-2" d="M183.92,68.38l-3.4,1.5.59,1.35-.83.36-2.65-6,.84-.36.7,1.63,12.14-5.3-.72-1.64.83-.36L194,65.35l-.83.36-.5-1.14-7.42,3.25,7.24,2,2.09-.91L194,67.78l.83-.36,2.55,5.82-.82.37L195.88,72l-12.13,5.3.71,1.64-.82.36-2.64-6,.82-.36.59,1.35,8.73-3.81Zm15.36-.31c-2,.09-3.76-.73-4.28-1.93-.63-1.42.26-3.07,2-4.17l.55.67a2.33,2.33,0,0,0-.8,2.58,3,3,0,0,0,2.5,1.84Z"/><path class="cls-2" d="M48.2,175.47l.55-.71.18.15c.22.16.33.14.54-.12l2.43-3.11c.21-.26.2-.38,0-.55l-.17-.13.56-.71,4.57,3.58-.55.71-.18-.14c-.22-.17-.33-.15-.54.12l-2.42,3.09c-.21.27-.2.4,0,.57l.17.14-.55.71-2.14-1.68.55-.71.13.1c.21.17.33.15.54-.12l2.69-3.44-1.12-.87-2.69,3.44c-.21.26-.21.37,0,.54l.12.1-.55.71Z"/><path class="cls-2" d="M54.36,180.18l.5-.76.18.13c.23.15.34.11.52-.17l2.16-3.3c.18-.28.17-.39-.07-.54l-.18-.13.49-.75,2.28,1.48-.5.76-.17-.12c-.23-.15-.34-.12-.53.16l-1.41,2.18,2.81-1.3c.15-.24.15-.37-.08-.52l-.17-.12.49-.75L63,177.92l-.5.75-.18-.12c-.23-.15-.35-.12-.53.16L59.6,182c-.18.29-.16.42.07.57l.18.12-.49.75L57.07,182l.5-.75.18.11c.22.15.34.12.52-.16l1.44-2.2-2.82,1.29c-.19.29-.17.4.06.55l.18.12-.49.75Z"/><path class="cls-2" d="M66.27,185.31a2.12,2.12,0,0,1-.65.75c-.64.36-1.25.16-2.46-.5l-2.23-1.21.43-.79.19.11c.24.13.36.09.51-.21L63.94,180c.17-.29.14-.41-.1-.54l-.2-.1.44-.79,2.16,1.17c.86.47,1.73,1,1.68,2a1.48,1.48,0,0,1-.19.71c-.39.71-1,.89-2,.62A1.59,1.59,0,0,1,66.27,185.31Zm-3-.71.26.14c.89.48,1.19.15,1.49-.41.45-.84,0-1.15-.47-1.42l-.28-.15ZM64.7,182l.27.15c.68.37,1,.23,1.31-.31.4-.75-.06-1.06-.44-1.26l-.29-.16Z"/><path class="cls-2" d="M69.41,183.19a2,2,0,0,1,2.7-.7,2.48,2.48,0,0,1,1.07.85c.5.69.41,1.78-.28,3.3a4.91,4.91,0,0,1-1.5,2.08,2,2,0,0,1-2.07.09A2,2,0,0,1,68,187.17a5.28,5.28,0,0,1,.57-2.51A7.53,7.53,0,0,1,69.41,183.19Zm0,3.89c-.09.42,0,.7.32.83s.74-.08,1.11-.74c.19-.37.39-.77.59-1.22a9.65,9.65,0,0,0,.65-1.74c.1-.42,0-.69-.31-.83s-.74.08-1.11.75c-.19.37-.38.77-.59,1.21A10.54,10.54,0,0,0,69.38,187.08Z"/><path class="cls-2" d="M78.75,190.51a1.9,1.9,0,0,1-.53.84c-.58.45-1.22.34-2.51-.13l-2.38-.87.31-.84.2.07c.26.1.36,0,.48-.27l1.35-3.72c.11-.32.06-.43-.19-.52l-.21-.07.31-.85,2.32.85c.92.32,1.86.7,2,1.69a1.52,1.52,0,0,1-.1.72c-.27.76-.83,1-1.88.91A1.6,1.6,0,0,1,78.75,190.51Zm-3.07-.26.28.1c1,.35,1.2,0,1.41-.63.33-.89-.15-1.14-.68-1.33l-.3-.11Zm1-2.82.29.11c.73.26,1,.07,1.25-.51.29-.8-.22-1-.62-1.18l-.31-.11Z"/><path class="cls-2" d="M83.22,188a.72.72,0,0,1,.09.61,1,1,0,0,1-.21.38.92.92,0,0,1-.94.24,1.07,1.07,0,0,1-.72-1.33,1.41,1.41,0,0,1,.86-1,3.25,3.25,0,0,1,3.07.53,1.4,1.4,0,0,1,.62,1.27,5.24,5.24,0,0,1-.16.72l-.89,3.24c-.09.32-.08.52,0,.55s.28-.11.37-.44l.14-.52.65.18L86,193a1.7,1.7,0,0,1-.45.83,1.28,1.28,0,0,1-1.21.26,1.21,1.21,0,0,1-1-1.25,1.9,1.9,0,0,1-1.83.48,1.85,1.85,0,0,1-.86-.49,1.49,1.49,0,0,1-.38-1.55A1.85,1.85,0,0,1,82,189.9l.29,0,.76-.11c.76-.12,1.2-.4,1.34-.87a1,1,0,0,0,0-.46,1,1,0,0,0-.81-.74,1.82,1.82,0,0,0-.62-.08h-.27A.94.94,0,0,1,83.22,188Zm-1.12,3.27a1.18,1.18,0,0,0-.18.39.72.72,0,0,0,.13.69.7.7,0,0,0,.3.17c.38.1.7-.08,1-.55a2.93,2.93,0,0,0,.32-.76l.25-.93A5.55,5.55,0,0,0,82.1,191.25Z"/><path class="cls-2" d="M92,188.63a1.49,1.49,0,0,1,.71.35c.63.58.8,1.65.5,3.19A8.87,8.87,0,0,1,92.7,194c-.45,1.15-1.11,1.64-2,1.47a1.92,1.92,0,0,1-1.15-.84l-.21,1.13c-.06.33,0,.44.27.5l.23,0-.17.88-2.74-.51.17-.89.21,0c.28.05.37,0,.43-.35l1.11-5.89c.07-.33,0-.43-.26-.48l-.23,0,.17-.88,2.16.4-.11.62A2,2,0,0,1,92,188.63ZM90,194a.5.5,0,0,0,.35.22c.38.07.67-.21.85-.85a12.58,12.58,0,0,0,.31-1.36,4.21,4.21,0,0,0,.08-2.18.44.44,0,0,0-.34-.22c-.37-.07-.67.22-.89.89a14.52,14.52,0,0,0-.36,1.41A3.55,3.55,0,0,0,90,194Z"/><path class="cls-2" d="M96.52,194.6a.8.8,0,0,0,.75.77.91.91,0,0,0,.41-.05,1.45,1.45,0,0,0,.66-1.25l0-.31,1.06.11,0,.23a2.27,2.27,0,0,1-1.31,2.1,2.53,2.53,0,0,1-1.1.13,2.25,2.25,0,0,1-1.21-.49,3.11,3.11,0,0,1-.88-2.94,8.52,8.52,0,0,1,.3-1.47,2.74,2.74,0,0,1,1.36-1.82,2.2,2.2,0,0,1,1.13-.18,2,2,0,0,1,1.66,1.18,4.07,4.07,0,0,1,.19,2.19l-.06.52L96.58,193A7,7,0,0,0,96.52,194.6ZM98,192.25c0-.31,0-.53.06-.68.08-.74-.08-1.13-.49-1.18a.59.59,0,0,0-.62.46,5.18,5.18,0,0,0-.22,1.27Z"/><path class="cls-2" d="M101.08,196.56l0-.9h.22c.28,0,.36-.08.36-.41l.13-3.95c0-.33-.06-.43-.34-.43h-.22l0-.9,2.71.09,0,.89h-.17c-.27,0-.35.08-.36.41l0,1.38,1.42,0,.05-1.38c0-.33-.06-.42-.34-.42h-.16l0-.9,2.71.08,0,.9h-.22c-.28,0-.35.08-.36.41l-.13,3.94c0,.34.08.44.35.44h.23l0,.9-2.72-.08,0-.9h.16c.28,0,.35-.08.36-.42l.05-1.67-1.42,0-.05,1.67c0,.33.06.42.34.43h.16l0,.9Z"/><path class="cls-2" d="M108.78,196.74l0-.91H109c.27,0,.34-.11.33-.44l-.21-3.95c0-.34-.09-.42-.37-.41h-.22l0-.89,2.71-.14,0,.9H111c-.28,0-.35.11-.33.43l.07,1.38,1.41-.07-.06-1.37c0-.34-.1-.42-.38-.41h-.16l0-.9,2.71-.14,0,.9h-.23c-.28,0-.34.11-.33.44l.2,3.94c0,.33.11.43.39.42l.22,0,0,.9-2.71.14,0-.9H112c.28,0,.35-.11.34-.44l-.09-1.67-1.42.07.08,1.67c0,.34.1.43.38.41h.16l0,.9Z"/><path class="cls-2" d="M118.42,189.38l.14.89-.37,0c-.28,0-.33.13-.28.47l.19,1.36.41-.06c1.5-.22,2.55-.1,2.79,1.58s-.81,2.06-2.23,2.26l-2.59.38-.12-.89.22,0c.27,0,.34-.13.29-.47L116.3,191c0-.34-.14-.42-.4-.38l-.23,0-.13-.88Zm.1,5.73.39-.06c.71-.1,1-.39.84-1.17-.09-.6-.34-1-1.14-.9l-.38.05Zm2.93-4.83c0-.34-.13-.42-.4-.37l-.23,0-.12-.88,2.73-.4.13.88-.22.05c-.27,0-.34.13-.29.46l.57,3.89c0,.33.15.41.42.38l.22,0,.13.88-2.75.4-.14-.89.23,0c.27,0,.34-.14.29-.47Z"/><path class="cls-2" d="M126.27,194.73l-.22-.87.22-.06c.26-.06.32-.16.24-.49l-1-3.84c-.08-.33-.18-.4-.44-.33l-.22.05-.21-.87,2.64-.66.21.88-.2.05c-.27.07-.31.17-.24.5l.62,2.52,1-3c-.07-.27-.17-.36-.43-.3l-.21,0-.22-.87,2.64-.66.22.88-.22.05c-.26.07-.31.18-.23.5l.94,3.83c.08.33.19.4.46.33l.21-.05.23.87-2.67.66-.21-.88.21,0c.26-.06.31-.16.24-.5L129,190l-1,2.95c.08.33.17.4.44.33l.21-.05.22.87Zm1.11-8a1.29,1.29,0,0,0,.73-.38.65.65,0,0,1-.63-.56.63.63,0,0,1,.51-.76.78.78,0,0,1,.93.61,1.12,1.12,0,0,1-.14.89,2,2,0,0,1-1.26.77,2.11,2.11,0,0,1-1.49-.09,1.14,1.14,0,0,1-.53-.72.79.79,0,0,1,.54-1,.67.67,0,0,1,.51,1.22A1.28,1.28,0,0,0,127.38,186.75Z"/><path class="cls-2" d="M137.54,187.5a1.54,1.54,0,0,0,1-.76,1.14,1.14,0,0,0,0-.91.8.8,0,0,0-1.14-.51c-.52.19-.84.84-.48,1.8l-.79.31-.81-2.11.58-.22.39.38a2,2,0,0,1,3.57-.33c.34.88.06,1.46-.83,2.13,1.07-.18,1.81.11,2.13.93a1.66,1.66,0,0,1,0,1.29,2.62,2.62,0,0,1-1.55,1.4A2.57,2.57,0,0,1,138,191a1.72,1.72,0,0,1-1.18-1.08.83.83,0,0,1,.45-1.06.72.72,0,0,1,1,.42.6.6,0,0,1-.36.74l-.12,0a1.25,1.25,0,0,0,1.25.13,1,1,0,0,0,.66-1.51c-.28-.76-1.06-.78-1.81-.5l-.07,0Z"/><path class="cls-2" d="M143,183.48a.76.76,0,0,1,.46.4.93.93,0,0,1,.08.44.91.91,0,0,1-.55.78,1.15,1.15,0,0,1-.55.1,1.08,1.08,0,0,1-.87-.63,1.45,1.45,0,0,1,0-1.3A2.92,2.92,0,0,1,143,182a3.09,3.09,0,0,1,1.24-.3,1.38,1.38,0,0,1,1.28.56,4.36,4.36,0,0,1,.35.65l1.43,3c.15.3.29.45.4.4s.14-.26,0-.58l-.23-.48.61-.29.24.5a1.73,1.73,0,0,1,.18.93,1.32,1.32,0,0,1-2.28.65,1.88,1.88,0,0,1-1.08,1.55,1.8,1.8,0,0,1-1,.18,1.46,1.46,0,0,1-1.28-.92,1.85,1.85,0,0,1,.36-2.1l.19-.21L144,185c.5-.58.65-1.08.44-1.51a.77.77,0,0,0-.29-.35,1,1,0,0,0-1.09,0,2.11,2.11,0,0,0-.52.34l-.2.18A1.11,1.11,0,0,1,143,183.48Zm1.28,3.22a.81.81,0,0,0,.11.4.68.68,0,0,0,.55.44.72.72,0,0,0,.33,0c.36-.18.48-.52.39-1.08a3.22,3.22,0,0,0-.25-.78l-.4-.86A5,5,0,0,0,144.28,186.7Z"/><path class="cls-2" d="M154.07,181.81a1.94,1.94,0,0,1,.3.94c0,.73-.53,1.15-1.72,1.83l-2.21,1.26-.44-.78.2-.11c.24-.14.26-.25.09-.55L148.34,181c-.17-.3-.28-.34-.52-.2l-.19.11-.45-.78,2.15-1.22c.84-.49,1.74-1,2.54-.4a1.59,1.59,0,0,1,.5.53c.4.71.24,1.31-.53,2A1.59,1.59,0,0,1,154.07,181.81Zm-3.67-.43.27-.16c.67-.38.72-.74.42-1.27-.42-.74-.92-.51-1.3-.29l-.28.16Zm1.49,2.6.25-.15c.89-.5.75-.93.44-1.48-.47-.83-1-.63-1.45-.35l-.28.16Z"/><path class="cls-2" d="M153.81,178.05a2,2,0,0,1,.81-2.67,2.55,2.55,0,0,1,1.3-.47c.84-.06,1.74.59,2.67,2a4.92,4.92,0,0,1,1,2.37,2,2,0,0,1-1,1.82,2,2,0,0,1-2.11.31,5.35,5.35,0,0,1-1.85-1.8A7.39,7.39,0,0,1,153.81,178.05Zm3.31,2.07c.31.3.61.35.88.16s.31-.66-.06-1.33c-.21-.36-.46-.74-.73-1.14a10.83,10.83,0,0,0-1.14-1.48.64.64,0,0,0-.88-.16c-.33.23-.32.66.06,1.33.22.36.46.74.73,1.14A10.21,10.21,0,0,0,157.12,180.12Z"/><path class="cls-2" d="M165.17,174.83l1.66,2.12-.62.5-.07-.09c-.86-1.1-1.36-1.08-2-.58l-1.36,1.07c-.65.51-.78,1,.07,2.08l.08.09-.63.49-1.66-2.12.28-.22a2.07,2.07,0,0,0,0-1,6.78,6.78,0,0,0-1.44-2.41l-.46-.59c-.2-.25-.35-.35-.67-.1l-.32.25-.55-.7,4.13-3.25.56.71-.18.13c-.22.18-.22.29,0,.55l2.69,3.44Zm-4.75-2.36-.74.58c-.23.18-.2.27,0,.49l.46.6a8.23,8.23,0,0,1,1.79,3.25l1.48-1.15Z"/><path class="cls-5" d="M12.43,121.31c-1.15,1.69-4.14-1.06-5.46.21,2.76,1.63,6.67,1.32,9,3.37.87.74,1.3,1.87,2.11,2.73.86.12,1,1,1.89,1a4.33,4.33,0,0,1-1.47,2.11A15.47,15.47,0,0,1,8.23,125.1a29.51,29.51,0,0,1-5.46-10.73c.92-.94,2.78-.92,4.41-.63C7.89,117.31,10.08,119.39,12.43,121.31Zm9.68.21c.69-1.63,5.85-3.24,7.1-4.31-5.08-1.3-13.48.27-15.83,3.06,2.62,1,4.44,4.49,6,6.51,1.58-1.3,2.78-3,4.63-4C23.75,122,22.36,122.32,22.11,121.52Zm4.21-16.84c-.28-1.61-1.6-6.31-1.47-8.34a13.45,13.45,0,0,0-7.79.63c-.11,2.23,1.64,6.72,2.32,8.14A33.07,33.07,0,0,1,26.32,104.68Zm.42,2.12c-3.47-.42-7.54-.29-9.88,1a18,18,0,0,0,4.43,7.34c6.52-.46,10.23.8,15.54.44-.83-1-2.14-1.13-3.14-1.68A18,18,0,0,1,26.74,106.8ZM11.81,119a17.13,17.13,0,0,1,7.94-3.33c-.83-1-2.92-4-3.62-5.24A16.93,16.93,0,0,0,8,111.7,14.13,14.13,0,0,0,11.81,119ZM7.18,102.38a20,20,0,0,0,2.74,6.73,16.65,16.65,0,0,1,5.68-.64c-.42-1.12.17-1-.12-2.36a5.21,5.21,0,0,1,2.07-.67,16.74,16.74,0,0,1-1.74-4.74A16.09,16.09,0,0,0,7.18,102.38Zm9-6.76a10.18,10.18,0,0,1-.63-2.94c-2.41-1-6.47-1.16-8.83,0a12.3,12.3,0,0,0,1.26,6.1,15.49,15.49,0,0,1,6.31-.84C13.91,96.2,15,95.85,16.13,95.62Zm10-2.39a38.43,38.43,0,0,1,.21-5.46c-2.05-1-6.05-1.58-8.41-.42a21.27,21.27,0,0,0,.84,6.73C21.43,93.28,24.34,94.45,26.11,93.23Zm.21,2.37c-.77,4.72,1.49,9,3.19,12,.49-.92-.17-3.34,0-4.61.58-.56,2.81.73,3.14.42-.45-2.65.16-6,1.9-7.06C32.77,95.45,28.61,95.35,26.32,95.6ZM36,88.29a26.32,26.32,0,0,0-7.36-2.74,37.87,37.87,0,0,0-1.06,8,18.44,18.44,0,0,1,7.31.53A30.18,30.18,0,0,1,36,88.29Zm9.25,6.1a12.58,12.58,0,0,1-.84-5.26,16.31,16.31,0,0,1-5.08-4.84c-.84,1.52-4.31,9.8-1.86,13.25.86,1.21.85,4,2.52,3.58-.09-1.15.09-2,.84-2.32a6.69,6.69,0,0,0,4,1.69c-.72-.72-.44-2,1-1.69-.18-1.56-1.2-2.29-1.89-3.36C43.88,94.56,45,94.86,45.25,94.39Zm25.87.42c-.52-2.15.67-3.67.42-5.26-.43-2.7-3.86-4.29-6.31-5.26a13.08,13.08,0,0,0-2.73,9.26C65.09,94.25,68.35,94.28,71.12,94.81Zm-9.46-6.73a39.79,39.79,0,0,0,2.11-4,10.94,10.94,0,0,0-5.05-2.73c-1.26.63-1.15,2.63-1.68,4C58.7,86.13,60.52,86.77,61.66,88.08Zm.21,8.2a13.49,13.49,0,0,1-.43-5,14.31,14.31,0,0,0-7.14-3.79,13,13,0,0,0,0,7.58C55.91,96.55,59.2,96.34,61.87,96.28ZM47.14,98.8c2.14-.31,6.47.28,8.64,0C54.87,96,49.3,95,45.88,95.44,45.64,96.45,47.23,97.27,47.14,98.8ZM52.61,90c-1.79-1.07-3.44-2.31-5.89-2.73-1.88,1.28-1.14,5.16-.2,6.94,1.89-.59,4.84-.57,6.3.42C53,93.67,52.37,91.69,52.61,90Zm4-8c-1.82-1.06-3.56-2.19-6.53-2.1a16,16,0,0,0-1,5.46c1.78.26,2.8,1.27,4.21,1.9.48-1.13.87-2.37,2.74-2.11C56.09,84,56.47,83.1,56.61,82Zm3.78-3.16c1.65-3.4-2.33-5.13-5.46-5.68-.63,1.34-1.46,2.48-1.47,4.42a11.81,11.81,0,0,1,4.41,2.1A1.88,1.88,0,0,1,60.39,78.82ZM66.71,82c1-1,1.45-2.62,2.52-3.58a8.63,8.63,0,0,0-5.25-4c-1.33,1.06-1.77,3-2.54,4.63C63.32,80,64.72,81.76,66.71,82Zm7.77.63c-.31-2-1.64-3-2.51-4.42-2,.7-2.68,2.65-4,4C69.31,84.32,71.91,82.66,74.48,82.61Zm63.8,0a25.65,25.65,0,0,0-8.41,1.47c0-.86.36-1.31.21-2.31-5.08.11-6.41,4-9.68,5.89-.19-.37-.77-.35-.84-.84,1.94-6.89-.9-13-6.09-14.73-.64.62-.65,1.87-1.68,2.1-1.19-2-2.52-3.77-4.76-4.68-2.26.91-3.59,2.73-4.78,4.68-1-.23-1-1.48-1.68-2.1-5.19,1.7-8,7.84-6.1,14.73-.06.49-.66.47-.84.84C90.36,85.74,89,81.88,84,81.77c-.15,1,.24,1.45.21,2.31a25.6,25.6,0,0,0-8.41-1.47c-.13,1,.48,1.21.42,2.1-1.49.83-4.23.41-5.47,1.48,5.26,1,8.61,4,9.89,9,2.31-2.94,5.62-4.89,8.41-7.36,1.16.24,1.11,1.69,1.27,2.94,1.44-1.5,4.61-1.26,7.14-1.68.76.55.27,1.8.22,2.74,2.58-.13,4.5.4,5.25,2.1A11.49,11.49,0,0,1,107,95.74,11.31,11.31,0,0,1,111.16,94c.76-1.7,2.67-2.23,5.25-2.1-.06-.94-.54-2.19.21-2.74,2.53.42,5.7.18,7.15,1.68.15-1.25.09-2.7,1.26-2.94,2.79,2.47,6.1,4.42,8.42,7.36,1.27-5,4.63-8,9.87-9-1.23-1.07-4-.65-5.46-1.48C137.81,83.82,138.42,83.58,138.28,82.61ZM74.91,96.91c0-1-.22-2.17.62-2.31,1.44,0,1.56,1.39,2.74,1.68C80,93.13,77,88.64,73.64,87.87,71.79,90.39,71.5,96.76,74.91,96.91Zm24.19,9.26c.06.49.33.79.21,1.47,1.8-.56,3.76,0,5.26.42C104.46,105.72,101.49,106.22,99.1,106.17Zm4.62-1.06c-.1-1.85-4.25-1.09-4.83-.2C99.61,105.65,102.2,104.36,103.72,105.11Zm.85,5.47c-.27-2.25-3.12-1.93-5.26-2.31v1.47C101.15,108.87,102.79,110.18,104.57,110.58Zm-3.58.63c-.08-.89-1-1-1.89-1a1.65,1.65,0,0,1-.43,1.25C99.24,112,100.07,111,101,111.21Zm-2.32-7.35a7.45,7.45,0,0,1,4-1.27c-.67-1.27-1.83-.86-3.36-.63A3.26,3.26,0,0,0,98.67,103.86Zm.43-2.74c.63,0,.71-.55,1.26-.63a1.19,1.19,0,0,0-1.26-.63Zm0-2.74A18.5,18.5,0,0,1,107,103.5a18.43,18.43,0,0,1,7.91-5.12c-3.24-.22-5.87.15-7.14,1.9a3.47,3.47,0,0,1-.77-.39,4.06,4.06,0,0,1-.78.39C105,98.53,102.33,98.16,99.1,98.38Zm16.27,5.48a3.34,3.34,0,0,0-.64-1.9c-1.52-.23-2.69-.64-3.37.63A7.42,7.42,0,0,1,115.37,103.86Zm-1.69-3.37c.55.08.63.63,1.26.63V99.86A1.19,1.19,0,0,0,113.68,100.49Zm1.47,4.42c-.58-.89-4.72-1.65-4.83.2C111.84,104.36,114.43,105.65,115.15,104.91Zm.22,6.51a1.69,1.69,0,0,1-.43-1.25c-.93,0-1.81.15-1.88,1C114,111,114.79,112,115.37,111.42Zm-5.88-.84c1.76-.4,3.39-1.71,5.24-.84v-1.47C112.59,108.65,109.75,108.33,109.49,110.58Zm0-2.52c1.49-.39,3.44-1,5.24-.42a3.44,3.44,0,0,1,.21-1.47C112.55,106.22,109.6,105.72,109.49,108.06Zm29.64-11.15c3.4-.15,3.11-6.52,1.25-9-3.31.77-6.36,5.26-4.63,8.41,1.19-.29,1.3-1.64,2.74-1.68C139.33,94.74,139.1,96,139.13,96.91Zm3.78-2.1c2.77-.53,6-.56,8.62-1.26a13.08,13.08,0,0,0-2.74-9.26c-2.44,1-5.87,2.56-6.3,5.26C142.23,91.14,143.43,92.66,142.91,94.81Zm16.82.21a13.13,13.13,0,0,0,0-7.58,14.34,14.34,0,0,0-7.15,3.79,13.09,13.09,0,0,1-.42,5C154.83,96.34,158.12,96.55,159.73,95Zm.22,3.36c2.17.28,4.79.11,6.93.42-.08-1.53,1.53-2.35,1.27-3.36C164.72,95,160.85,95.62,160,98.38Zm-9.68-14.3a36,36,0,0,0,2.1,4c1.15-1.31,3-2,4.63-2.74-.54-1.36-.43-3.36-1.68-4A10.84,10.84,0,0,0,150.27,84.08Zm-4.21-1.9c-1.31-1.34-2-3.29-4-4-.88,1.44-2.21,2.42-2.54,4.42C142.12,82.66,144.72,84.32,146.06,82.18Zm1.27-.2c2-.22,3.38-2,5.25-2.94-.76-1.62-1.2-3.57-2.53-4.63a8.65,8.65,0,0,0-5.25,4C145.87,79.36,146.33,80.94,147.33,82Zm8.83-2.32a11.81,11.81,0,0,1,4.41-2.1c0-1.94-.84-3.08-1.47-4.42-3.13.55-7.12,2.28-5.47,5.68A1.89,1.89,0,0,1,156.16,79.66Zm4.63,7.58c1.41-.63,2.43-1.64,4.2-1.9a15.78,15.78,0,0,0-1.06-5.46c-2.94-.09-4.69,1-6.51,2.1.14,1.12.53,2,.63,3.15C159.92,84.87,160.3,86.11,160.79,87.24Zm6.73,6.94c.93-1.78,1.69-5.66-.21-6.94-2.45.42-4.1,1.66-5.89,2.73.23,1.72-.37,3.7-.22,4.63C162.67,93.61,165.62,93.59,167.52,94.18Zm9,3.36c2.46-3.45-1.9-10.68-2.74-12.2a10.61,10.61,0,0,1-4.2,3.79,12.42,12.42,0,0,1-.84,5.26c.29.47,1.37.17,1.26,1-.68,1.07-1.71,1.8-1.89,3.36,1.48-.33,1.76,1,1.06,1.69a6.69,6.69,0,0,0,4-1.69c.75.3.93,1.17.84,2.32C175.72,101.59,175.7,98.75,176.56,97.54Zm9.88-4.2a28.21,28.21,0,0,0-1-6.94A26,26,0,0,0,178,89.13a27,27,0,0,1,.21,5.26A22.24,22.24,0,0,1,186.44,93.34ZM182,104.07c.33.3,1.93-.36,2.52.21.14,1.26-.28,3.07.21,4,1.7-2.93,3.73-6.64,3-11.36-2.3-.26-5.4-.45-7.15.43C182.3,98.39,182.47,101.42,182,104.07Zm9.89,17.45c-.25.8-1.65.46-1.89,1.27,1.83,1,3,2.69,4.62,4a13.18,13.18,0,0,1,5.89-4.83c-2.35-2.8-7.55-4.68-12.62-3.38C189.16,119.65,191.23,119.89,191.92,121.52Zm1.47-7.15a14.09,14.09,0,0,0,3.78-6.52c-2.33-1.34-6.41-1.47-9.88-1a17.93,17.93,0,0,1-6.95,7.15c-1,.55-2.3.71-3.15,1.68C182.51,116,186.88,113.91,193.39,114.37ZM189.18,98a21,21,0,0,1-.42,5.26,33.85,33.85,0,0,1,6.94.42,9.32,9.32,0,0,0,1.26-5A13.5,13.5,0,0,0,189.18,98Zm6.1-3.36a21.86,21.86,0,0,0,.84-6.73c-2.35-1.16-6.36-.57-8.41.42a41.72,41.72,0,0,1,.21,5.47C189.68,95,192.6,93.8,195.28,94.6Zm9.47,3.58A12.43,12.43,0,0,0,206,92.07c-2.36-1.15-6.43-1-8.84,0a10.53,10.53,0,0,1-.62,3c1.17.22,2.22.57,1.88,2.32A15.37,15.37,0,0,1,204.75,98.18Zm-.63,10.93a20.19,20.19,0,0,0,2.73-6.73,16.09,16.09,0,0,0-8.63-1.68,9.32,9.32,0,0,1-1.26,3.58,3.78,3.78,0,0,1,1.69.83c-.3,1.37.2,2.24-.22,3.36A16.8,16.8,0,0,1,204.12,109.11Zm-6.73,2.31a28.69,28.69,0,0,1-2.32,3.37c3.3.48,5,2.61,7.15,4.21a10.63,10.63,0,0,0,3.36-6.31A17.12,17.12,0,0,0,197.39,111.42Zm8.4,13.68a29.37,29.37,0,0,0,5.47-10.73c-.92-.94-2.79-.92-4.41-.63-.71,3.57-2.9,5.65-5.26,7.57,1.16,1.69,4.14-1.06,5.47.21-2.76,1.63-6.67,1.32-9.05,3.37a32.77,32.77,0,0,0-2.1,2.73c-.86.12-1,1-1.89,1a4.26,4.26,0,0,0,1.47,2.11A15.42,15.42,0,0,0,205.79,125.1Zm-10.51,17.24c4.53,1.08,7.75,3.47,10.73,6.1,0-8.64-1.23-19.56-10.1-16.61a19.29,19.29,0,0,1,6.1,5.89c1.07,1.53,2.55,3.15,2.52,5-2.74-2.93-4.27-7.08-7.78-9.25.15,1.12,1.18,1.35,1.05,2.73a5.41,5.41,0,0,1-2.1.22A23.12,23.12,0,0,1,195.28,142.34Zm-8-5.88a27.69,27.69,0,0,0,5.88,8.83c.91-2.86.9-7.23.64-10.1.37-.25,1.22,0,1.47-.42a37.81,37.81,0,0,0-5.25-7.36c0-.81,1.31-.36,1.46-1-1.48-1.25-3.51-2-4.84-3.37.12-1,1.43-.82,1.69-1.68-3.31-2.28-7.17-5.12-13-3.57-.05-.17-.17-.25-.42-.22-2.33-4.08,3.94-3.2,5.68-5.88,1-1.58.71-2.72.84-5.69-.81-.11-1,.38-1.89.22-1.28-1.89-.06-6.26-2.32-7.16,0,3-2.9,6.08-5.89,4-.15-.57.42-.42.42-.84-1,.36-2.31.35-3.15.84,3.06,2,5.78,4.44,6.94,8.41-1.18,1.56-4.48.12-6.52,1.06-.15.65.36.61.22,1.26a14.86,14.86,0,0,0-5.28,3.78c.43.54,1.59-.68,2.12,0-1.12,0-1.21,1-1.69,1.69-1.44.92-4,1.71-3.79,3.58,3.46-1.2,6.6-4.49,11.15-5.27-1.94,2-5.6,2.38-6.51,5.47,3,0,4.45-1.73,6.94-2.53s5.85-1.72,9-1c-4.42,1.19-9.38,1.83-11.35,5.48,5,1.56,8.64-2.82,14.09-1.48-3,.79-6.3,1.27-8,3.37,2.74,1.53,8.1.44,11.35,1.47-2.51,0-4.43.63-6.95.63,2,2.65,6.78,3.15,10.52,3.37-1.65,1-5.06.86-6.73.63,1.52,1.92,4.05,2.82,6.94,3.36A5.41,5.41,0,0,1,187.29,136.46Zm-11.78,4.41c.17-.8.17-1.8,1.05-1.89a32.78,32.78,0,0,0,5.9,3.15c.3-.46,0-1.56.62-1.68a11.17,11.17,0,0,1,5.26,2.11c.3-.55.71-1,1-1.48-6.28-8.89-15.89-16.56-31.33-14.93,1.76.77,4.11.93,5.88,1.68a4.67,4.67,0,0,1-1.25,2.53,9.09,9.09,0,0,1,2.31,3.57C170.25,130.33,171.94,140.08,175.51,140.87ZM165.83,135a11.37,11.37,0,0,0,4.42,2.31C169.24,136.25,167.87,133,165.83,135Zm-6.31,4.84c-1.62,0-2.91,1.85-4.62,2.31.49.47.69-.54,1.67-.21.5,2.39,2.54,3.22,4,4.63.38-.32.65-.76,1.48-.63,1.16,1.08,2.06,2.43,3.58,3.15,1.93-1,3.89,1.36,5.47,2.11.88-.8.57-2.79.62-4.42.5,0,.63-.36,1.26-.21-.41-2-1.95-2.81-3.15-4,.18-.66.8-.89.84-1.69-2.62-1.65-4.94-3.88-9-2.94.74.78,2.31.76,2.94,1.68-1.07-.09-1.54-.56-2.53-.21.19,2.41,4.33.86,5.26,2.52-1.22-.1-2.93-1-3.16.64,1.33.77,3.53.67,4.42,1.89-1-.08-2.33-.82-3.36-.21a17.93,17.93,0,0,0,1.26,2.73C164.22,145.3,162.67,139.9,159.52,139.82Zm-56.64.85c1.45.35,3.08.51,4.15,1.25,1.07-.74,2.69-.9,4.13-1.25.58-1.62,1.54-3.91,1.27-5.69a23.55,23.55,0,0,0-5.13.35v.09l-.27,0-.27,0v-.09a23.74,23.74,0,0,0-5.14-.35C101.34,136.76,102.3,139.05,102.88,140.67Zm5.34-18.52c1.42,0,3.62.69,4.62-.2-.58-2.94-2.76-4.27-5.81-4.74-3.06.47-5.25,1.8-5.83,4.74,1,.89,3.21.19,4.63.2-1.49,1-4.86,1.53-6.31.21-1.34,2-4.76,2-7.57,2.53.24,1.68,1.41.63,2.52.84,1.71.33,3,1.64,4.63,1.68,3.56.1,5.67-2.25,7.66-4.78V122l.27.34c.08-.12.18-.23.27-.34v.68c2,2.53,4.09,4.88,7.64,4.78,1.58,0,2.92-1.35,4.62-1.68,1.12-.21,2.28.84,2.52-.84-2.81-.55-6.22-.5-7.55-2.53C113.08,123.68,109.71,123.12,108.22,122.15Zm-1.46,9.22h.54a7.63,7.63,0,0,0,2.81-.38c0-1.88-1.42-2.24-3.08-2.41-1.67.17-3.14.53-3.1,2.41A7.77,7.77,0,0,0,106.76,131.37Zm.27-3.62a11.81,11.81,0,0,0,2.24-.34c-.77-.14-1.5-.29-2.24-.44l-2.26.44A11.91,11.91,0,0,0,107,127.75ZM62.08,140.87c0,.92.07,1.9-.42,2.32,2.86.53,5.53,1.92,8.62,1.05.61,0,.39.87.42,1.47,2.38-.64,4.75-1.28,6.31-2.73a.79.79,0,0,1,.85.83,16.82,16.82,0,0,0,6.3-6.09c1.65,1.22,2.27,3.48,3.78,4.84.51-.07.4-.74,1.06-.64a9.38,9.38,0,0,0,5.47,3c-.12-.69.15-1,.21-1.48,2.46.77,5.06.14,7.36-.41-.37-2.12-1.64-3.79-2.11-5.89-.32-1.48,0-3-.83-4.21-1.76-2.69-6.32-.93-7.37-4.41-2.65,3.61.75,7.54,4.84,7.57-1.49,1.34-4.31.25-5.25-.85-.2,2.3,2.13,3.9,4,4.84-4.24-.36-7.77-5.75-5.68-11.15-2.3,1.48-4.54,4.86-8.2,5.68-1.87,4.16-6.05,6-9.68,8.42,2.17-2.68,6.32-3.36,6.94-7.58a18.3,18.3,0,0,1-5.25.42c-1.82,3.24-6.35,3.75-10.1,5.05,1.16-2.14,6-2.45,6.94-5.47-4.66-1.72-10.12-.44-12.19,2.73a6.07,6.07,0,0,1,3.35-3.78c-2-.55-4.43.33-6.09.84,6.75-6.05,25.81,3.91,29.65-6.94a2.39,2.39,0,0,0-.63-2.73c-4.35-.29-6.58,1.55-10.3,1.89,1-1.25,3.34-1.15,4.2-2.52-1.57-5.54-12.88-.07-17.24-3.37a47.93,47.93,0,0,0,12.19-.63,38,38,0,0,1-3.57-2.1c-4.79.83-11.35,1-14.94-1.05,3.42.4,9.71.79,13.47-.22-1.93-4-11.11-5.75-15.57-2.73,1.43-2.38,5.66-2.76,9.26-2.31-1.65-4.34-9.72-3.21-11.15.63-.72-2.33,1.51-3.53,3-4.42-2.59-1.26-6.71-.26-9.68,0a15.74,15.74,0,0,1,8-2.52c4.37-.06,7.3,2,10.31,4s5.32,4.84,8.83,5.46c2.14-4.68-2.66-9.52-5.25-12,5,1.82,7.52,7.9,8.2,14.72,2.37,2,6.19,5.16,10.09,3.59a4.49,4.49,0,0,0-.21-3.38c1,.46,4.12,3.17,5.89,1.06-.83-4.57-4.32-6.47-8.19-8,2.93-.14,5.48,1.94,7.56,3.36,0-4-4.07-5.74-7.36-7.15,2-.77,3.89.46,5.47.84,1.06-1.4-.73-1.75-1.48-2.52-1.15-1.21-2-3.24-4.19-3.58,2-.78,3.89,1.4,5,1.48.59-2.1-.39-4.38-.64-6.32.51-.15,1.08,1.45,1.68,1.89.9-1.48,1.86-2.92,3.79-3.36-1.2,1.76-3.66,4.54-3.36,8.42.26,3.37,3.34,6.64,3.79,10.93.3,3-.85,4.94.63,7.58,3-2.31,4-6.63,8-8-1.24,1.92-4.87,3.26-5.26,6.74,5.31.68,6.32-5.48,11.72-4.92,5.38-.56,6.4,5.6,11.68,4.92-.37-3.48-4-4.82-5.24-6.74,4,1.37,5,5.69,8,8,1.48-2.64.32-4.6.62-7.58.45-4.29,3.52-7.56,3.79-10.93.31-3.88-2.16-6.66-3.37-8.42,1.94.44,2.89,1.88,3.79,3.36.61-.44,1.18-2,1.68-1.89-.25,1.94-1.23,4.22-.63,6.32,1.14-.08,3.06-2.26,5-1.48-2.19.34-3,2.37-4.21,3.58-.74.77-2.54,1.12-1.46,2.52,1.58-.38,3.42-1.61,5.46-.84-3.3,1.41-7.36,3.14-7.36,7.15,2.09-1.42,4.63-3.5,7.57-3.36-3.87,1.52-7.37,3.42-8.2,8,1.78,2.11,4.85-.6,5.89-1.06a4.49,4.49,0,0,0-.21,3.38c3.9,1.57,7.72-1.6,10.09-3.59.69-6.82,3.23-12.9,8.2-14.72-2.59,2.47-7.4,7.31-5.25,12,3.51-.62,5.89-3.5,8.83-5.46s5.94-4.06,10.31-4a15.71,15.71,0,0,1,8,2.52c-3-.26-7.09-1.26-9.68,0,1.43.89,3.67,2.09,2.95,4.42-1.42-3.84-9.5-5-11.15-.63,3.61-.45,7.84-.07,9.26,2.31-4.46-3-13.63-1.29-15.57,2.73,3.76,1,10.06.62,13.46.22-3.58,2.06-10.13,1.88-14.93,1.05a39.32,39.32,0,0,1-3.57,2.1,48,48,0,0,0,12.19.63c-4.36,3.3-15.67-2.17-17.25,3.37.87,1.37,3.21,1.27,4.21,2.52-3.72-.34-6-2.18-10.3-1.89a2.41,2.41,0,0,0-.64,2.73c3.84,10.85,22.91.89,29.67,6.94-1.67-.51-4.08-1.39-6.11-.84a6,6,0,0,1,3.37,3.78c-2.08-3.17-7.56-4.45-12.2-2.73,1,3,5.78,3.33,6.94,5.47-3.74-1.3-8.27-1.81-10.09-5.05a18.34,18.34,0,0,1-5.26-.42c.61,4.22,4.78,4.9,6.93,7.58-3.63-2.4-7.8-4.26-9.66-8.42-3.68-.82-5.91-4.2-8.22-5.68,2.09,5.4-1.43,10.79-5.68,11.15,1.88-.94,4.2-2.54,4-4.84-.95,1.1-3.76,2.19-5.24.85,4.09,0,7.49-4,4.83-7.57-1,3.48-5.61,1.72-7.36,4.41-.81,1.23-.51,2.73-.84,4.21-.46,2.1-1.73,3.77-2.1,5.89,2.29.55,4.89,1.18,7.36.41,0,.5.32.79.2,1.48a9.41,9.41,0,0,0,5.47-3c.66-.1.55.57,1,.64,1.52-1.36,2.14-3.62,3.79-4.84a16.85,16.85,0,0,0,6.31,6.09A.78.78,0,0,1,137,143c1.56,1.45,3.94,2.09,6.3,2.73.05-.6-.17-1.45.43-1.47,3.09.87,5.76-.52,8.62-1.05-.49-.42-.43-1.4-.42-2.32,2.82.23,4.2-1,6.1-1.68.5-.42-.35-1,.21-1.47a24.51,24.51,0,0,1,5.47-1.26c-.24-2.5-2.34-3.14-3.37-4.85.21-.42.44-.82.64-1.25a17.41,17.41,0,0,0-7.37-1.89c-.16-.74.32-.82.21-1.49-2.32-.53-4.35,1.1-5.68,1.06-.55,0-.1-.49-.41-.42-.8.18-1.1,1.07-2.32.85a2.71,2.71,0,0,1-1.68-3.58c1.17-2.22,4.66-.09,7.36-.43,1-.54,1.35-1.72,2.52-2.1.33.66,1.62.36,2.53.43,1.87-2,4.49-3.23,6.73-4.85-.56.07-.54-.43-.63-.84,1.77-1.38,3.47-2.83,5.26-4.21a1,1,0,0,1-.42-1.47c2.6.15,4.4-1.15,6.94-.41-1.63-3.7-6-4.69-9-6.94-.19-1,.53-1,.43-1.9a34.76,34.76,0,0,0-10.1-.42c-.43-.79,1-1.23,0-1.26-2.51-.06-3.94,1-6.11,1.26-.56-.59.2-1,.22-1.69-4.46.38-8.18,1.5-10.73,3.8-.85,0,0-1.29-.42-1.27-1.86,1.22-2.19,4-4,5.26-2.1-2,.76-6.06-.64-8.84-.89,0-.7,1.12-1.89.85-.67-3-3.36-3.94-5.26-5.68-.29.47-.23,1.31-1.06,1.26a7,7,0,0,0-5.24-3c-.11,2.15-4.28.2-5,1.69,3.36.7,7.78,4.77,4.84,8.41-.45.46-.63-.27-1.28-.21,0,1.89-1.07,3.23-1.24,5.05-.4,3.95,2.35,5.8,1.89,8.2-1.86-1.23-3.18-3-6.1-3.15-.13.77-.14,1.67-.83,1.89a11,11,0,0,0-4.43-.84c-.27.42-.42,1-.7,1.38v.51a1.48,1.48,0,0,1-.27-.21,2.78,2.78,0,0,1-.27.21v-.51c-.29-.41-.45-1-.72-1.38a11,11,0,0,0-4.42.84c-.69-.22-.7-1.12-.84-1.89-2.93.15-4.25,1.92-6.1,3.15-.47-2.4,2.28-4.25,1.89-8.2-.17-1.82-1.23-3.16-1.26-5.05-.64-.06-.82.67-1.25.21-3-3.64,1.47-7.71,4.83-8.41-.76-1.49-4.94.46-5-1.69a7,7,0,0,0-5.26,3c-.82,0-.76-.79-1-1.26-1.9,1.74-4.59,2.7-5.27,5.68-1.17.27-1-.84-1.88-.85-1.41,2.78,1.47,6.87-.63,8.84-1.82-1.27-2.13-4-4-5.26-.37,0,.43,1.28-.42,1.27-2.54-2.3-6.27-3.42-10.73-3.8,0,.65.77,1.1.22,1.69-2.17-.3-3.59-1.32-6.1-1.26-1,0,.12-1.08-.31-.29a47.62,47.62,0,0,0-11.92.29c-.1.87,2.74,2.61,2.54,3.58-3.06,2.25-7.4,3.24-9,6.94,2.55-.74,4.35.56,6.95.41a1,1,0,0,1-.42,1.47c1.77,1.38,3.47,2.83,5.25,4.21-.09.41-.07.91-.63.84,2.24,1.62,4.87,2.85,6.73,4.85.91-.07,2.2.23,2.52-.43,1.18.38,1.53,1.56,2.53,2.1,2.7.34,6.19-1.79,7.36.43a2.71,2.71,0,0,1-1.68,3.58c-1.22.22-1.51-.67-2.32-.85-.31-.07.14.4-.41.42-1.33,0-3.36-1.59-5.68-1.06-.11.67.37.75.2,1.49A17.4,17.4,0,0,0,53,130.36c.21.43.44.83.64,1.25-1,1.71-3.13,2.35-3.38,4.85a24.35,24.35,0,0,1,5.48,1.26c.56.47-.3,1.05.21,1.47C57.89,139.88,59.25,141.1,62.08,140.87Zm-21,5.68c.64-.15.76.22,1.26.21,0,1.63-.26,3.62.63,4.42,1.57-.75,3.53-3.09,5.47-2.11,1.52-.72,2.41-2.07,3.57-3.15.83-.13,1.09.31,1.48.63,1.46-1.41,3.49-2.24,4-4.63,1-.33,1.2.68,1.69.21-1.72-.46-3-2.35-4.63-2.31-3.14.08-4.7,5.48-6.95,7.15a19,19,0,0,0,1.27-2.73c-1-.61-2.33.13-3.37.21.89-1.22,3.09-1.12,4.42-1.89-.23-1.66-1.94-.74-3.16-.64.93-1.66,5.08-.11,5.26-2.52-1-.35-1.47.12-2.52.21.62-.92,2.18-.9,2.94-1.68-4.1-.94-6.42,1.29-9,2.94,0,.8.66,1,.84,1.69C43,143.74,41.46,144.58,41.05,146.55Zm2.73-9.26A11.2,11.2,0,0,0,48.19,135C46.17,133,44.79,136.25,43.78,137.29Zm-19.14,3.79a17.84,17.84,0,0,1,1.05,1.48A11.13,11.13,0,0,1,31,140.45c.65.12.33,1.22.63,1.68A33,33,0,0,0,37.47,139c.89.09.88,1.09,1.05,1.89,3.57-.79,5.25-10.54,10.51-6.94a9.33,9.33,0,0,1,2.32-3.57,4.83,4.83,0,0,1-1.27-2.53c1.79-.75,4.15-.91,5.9-1.68C40.55,124.52,30.93,132.19,24.64,141.08Zm-4.42-5.89c-.26,2.87-.27,7.24.63,10.1a27.71,27.71,0,0,0,5.89-8.83,5.44,5.44,0,0,1-3.79-.22c2.89-.54,5.44-1.44,7-3.36-1.68.23-5.08.33-6.73-.63,3.74-.22,8.56-.72,10.52-3.37-2.53,0-4.44-.61-6.95-.63,3.25-1,8.6.06,11.36-1.47-1.69-2.1-5-2.58-8-3.37,5.44-1.34,9.1,3,14.09,1.48-2-3.65-6.93-4.29-11.35-5.48,3.18-.67,6.61.28,9,1s4,2.57,6.94,2.53c-.91-3.09-4.58-3.42-6.52-5.47,4.56.78,7.7,4.07,11.15,5.27.18-1.87-2.35-2.66-3.79-3.58-.49-.64-.58-1.68-1.68-1.69.52-.68,1.69.54,2.09,0a14.62,14.62,0,0,0-5.24-3.78c-.16-.65.35-.61.2-1.26-2-.94-5.34.5-6.52-1.06,1.15-4,3.88-6.36,6.94-8.41-.83-.49-2.19-.48-3.15-.84,0,.42.57.27.42.84-3,2.08-7-2.09-7-5-2.25.89-.57,5.89-1.85,7.78-.86.16-1.65-.73-2.46-.62a12.36,12.36,0,0,0,2,6.5c1.73,2.68,8,1.8,5.68,5.88-.24,0-.38,0-.43.22-5.86-1.55-9.72,1.29-13,3.57.26.86,1.57.68,1.68,1.68-1.32,1.42-3.35,2.12-4.83,3.37.15.69,1.44.24,1.47,1a37,37,0,0,0-5.26,7.36C19,135.15,19.85,134.94,20.22,135.19ZM8,148.44c3-2.63,6.2-5,10.73-6.1a23.59,23.59,0,0,1-.42-5.88,5.46,5.46,0,0,1-2.11-.22c-.11-1.38.91-1.61,1.05-2.73-3.5,2.17-5,6.32-7.78,9.25,0-1.89,1.45-3.51,2.53-5a19.29,19.29,0,0,1,6.1-5.89C9.24,128.88,8,139.8,8,148.44Z"/><path class="cls-6" d="M63.48,63.68h87.07v39.63c-.35,26.33-14.51,46.45-43.3,60-28-12.76-42.2-32.78-43.77-59.4V63.68Z"/><path class="cls-4" d="M150.55,63.68v39.63c-.35,26.33-14.51,46.45-43.3,60-28-12.76-42.2-32.78-43.77-59.4V63.68h87.07M152.28,62H61.75v42c1.64,27.7,16.71,48.18,44.79,61l.72.33.73-.33c29-13.67,43.92-34.38,44.29-61.55V62Z"/><path class="cls-2" d="M75.22,113.63h.3c1.91,0,2.42-1,2.46-1.76h1.64V122h-2v-7H75.22Z"/><path class="cls-2" d="M86.63,119.67v0a1.07,1.07,0,0,0,1.17,1c.82,0,1.67-.68,1.67-2.82l0,0a2.24,2.24,0,0,1-1.92.85,3,3,0,0,1-3.07-3.17c0-2.49,1.45-3.65,3.43-3.65,3.51,0,3.58,3.79,3.58,5.22,0,3.92-1.85,5.18-3.68,5.18a2.89,2.89,0,0,1-3.13-2.6Zm1.31-2.58a1.51,1.51,0,0,0,1.47-1.7c0-1.16-.49-1.88-1.53-1.88-.5,0-1.44.27-1.44,1.73S87.18,117.09,87.94,117.09Z"/><path class="cls-2" d="M122.61,115.14a3,3,0,0,1,3.36-3.27,2.84,2.84,0,0,1,3.13,2.83,2.08,2.08,0,0,1-1.22,1.93v0a2.24,2.24,0,0,1,1.53,2.34,3.21,3.21,0,0,1-3.44,3.26c-1,0-3.53-.21-3.53-3.37h1.94c0,.55.14,1.77,1.49,1.77a1.48,1.48,0,0,0,1.49-1.67c0-1.38-1.34-1.44-2.27-1.44v-1.43h.32c.59,0,1.69-.06,1.69-1.37a1.22,1.22,0,0,0-1.27-1.3c-1.34,0-1.36,1.3-1.36,1.67Z"/><path class="cls-2" d="M135.84,111.87c2.38,0,3.48,1.64,3.48,5.2s-1.12,5.21-3.52,5.21-3.49-1.66-3.49-5.21S133.45,111.87,135.84,111.87Zm0,8.82c1.15,0,1.46-1,1.46-3.62s-.31-3.6-1.46-3.6-1.45,1-1.45,3.6S134.66,120.69,135.8,120.69Z"/><path class="cls-3" d="M164.18,164.58c-11.53,2.43-22.46,6.32-34.3,8.44a122.6,122.6,0,0,1-22.72,2h0a122.74,122.74,0,0,1-22.74-2c-11.82-2.12-22.76-6-34.3-8.44-5-1.05-11.94-2.72-15.73,1.74-.12-.53-.26-1-.42-1.55a23.24,23.24,0,0,0-2.44-5.17c1.5-6.7,7.3-5.76,12.61-5.13,21.14,2.56,41.81,10.88,63,10.88s41.88-8.32,63-10.88c5.31-.63,11.12-1.57,12.62,5.13a23.28,23.28,0,0,0-2.45,5.17c-.16.51-.3,1-.42,1.55-3.78-4.46-10.76-2.79-15.73-1.74Z"/><path class="cls-4" d="M164.18,164.58c-11.53,2.43-22.46,6.32-34.3,8.44a122.6,122.6,0,0,1-22.72,2h0a122.74,122.74,0,0,1-22.74-2c-11.82-2.12-22.76-6-34.3-8.44-5-1.05-11.94-2.72-15.73,1.74-.12-.53-.26-1-.42-1.55a23.24,23.24,0,0,0-2.44-5.17c1.5-6.7,7.3-5.76,12.61-5.13,21.14,2.56,41.81,10.88,63,10.88s41.88-8.32,63-10.88c5.31-.63,11.12-1.57,12.62,5.13a23.28,23.28,0,0,0-2.45,5.17c-.16.51-.3,1-.42,1.55-3.78-4.46-10.76-2.79-15.73-1.74Zm-57,12.38a122.74,122.74,0,0,0,22.71-1.91c13.84-2.44,27.66-7.63,41.39-9.51-.16.2-.33.39-.47.59a8.8,8.8,0,0,0-1.1,1.83c-.62,1.38-.93,1.77-.72,3.44.6,4.69,7.06,5.83,10.4,3.3a5.14,5.14,0,0,0,2-4.76,16.67,16.67,0,0,1,.79-4.59,21.6,21.6,0,0,1,2.44-5c.82-1.27-1.64-5-2.48-5.86-3.59-3.47-7.71-2.46-12.14-1.93-21.06,2.54-41.83,10.87-62.85,10.88s-41.83-8.34-62.87-10.88c-4.44-.53-8.55-1.54-12.16,1.93-.83.81-3.29,4.59-2.46,5.86a22,22,0,0,1,2.43,5,17,17,0,0,1,.79,4.59,5.14,5.14,0,0,0,2,4.76c3.35,2.53,9.8,1.39,10.4-3.3.21-1.67-.11-2.06-.71-3.44a8.8,8.8,0,0,0-1.1-1.83c-.15-.2-.31-.39-.47-.59,13.72,1.88,27.54,7.07,41.38,9.51A123,123,0,0,0,107.15,177Z"/><path class="cls-3" d="M38.19,165.84a6,6,0,0,0-2.81,2.46,3.71,3.71,0,0,0,.7,4.85c2.18,1.64,6.91,1.12,7.31-2,.17-1.39-.41-1.9-1.1-2a14.88,14.88,0,0,0-1.94.22,1,1,0,0,1-1.15.87,1.06,1.06,0,0,1-.77-1.76,12.71,12.71,0,0,0-.1-1.95,5.25,5.25,0,0,0-.14-.71Z"/><path class="cls-3" d="M40.07,165.36a6.09,6.09,0,0,1,.19.91c.05.36.09.75.11,1.16a5.69,5.69,0,0,1,1.52-.21c-.25-.33-1.52-1.87-1.82-1.86Z"/><path class="cls-3" d="M176,165.84a6,6,0,0,1,2.8,2.46,3.68,3.68,0,0,1-.7,4.85c-2.17,1.64-6.9,1.12-7.3-2-.18-1.39.41-1.9,1.1-2a14.46,14.46,0,0,1,1.93.22,1,1,0,0,0,1.16.87,1.06,1.06,0,0,0,.77-1.76,12.83,12.83,0,0,1,.09-1.95,7.21,7.21,0,0,1,.15-.71Z"/><path class="cls-3" d="M174.11,165.36a7.64,7.64,0,0,0-.2.91c0,.36-.07.75-.1,1.16a5.68,5.68,0,0,0-1.51-.21c.25-.33,1.49-1.87,1.81-1.86Z"/><path class="cls-7" d="M86.85,59a2,2,0,0,1-1.49-.77q-2.89-4-5.75-8.06l-2.13-3a1.06,1.06,0,0,1,.87-1.66l.22,0,4.09.89c.68.14,1.34.28,2,.47a2.06,2.06,0,0,1,1.14.87c.18.29.34.58.51.88A6.13,6.13,0,0,1,90,47.24a5.67,5.67,0,0,1,2,.41,1.08,1.08,0,0,1,.62.7,1.1,1.1,0,0,1-.19.93l-.52.66c-.4.51-.8,1-1.16,1.54a3.7,3.7,0,0,0-.37.62l8.47-1.62-2-2.17a1.06,1.06,0,0,1,0-1.41,5.4,5.4,0,0,1,3.93-1.83h.27c-.1-.24-.19-.48-.3-.7a1.9,1.9,0,0,1,.28-2.12c.92-1.1,1.8-2.24,2.69-3.39l1-1.34a1.07,1.07,0,0,1,.82-.4h0a1,1,0,0,1,.83.39s1.66,2.09,2.22,2.78,1.16,1.47,1.66,2.19a1.93,1.93,0,0,1,.22,1.65c-.11.31-.22.61-.34.91h.23a5.33,5.33,0,0,1,3.93,1.78,1.08,1.08,0,0,1,.33.74,1.11,1.11,0,0,1-.31.77l-2.1,2.11L120.41,52l.46.09a5.85,5.85,0,0,0-.66-1.06c-.33-.46-.64-.81-.92-1.16l-.43-.49a1,1,0,0,1-.23-.86,1,1,0,0,1,.51-.72,4,4,0,0,1,2.11-.57,6.33,6.33,0,0,1,3.81,1.47s0-.09.07-.14a3,3,0,0,1,2.26-1.82c1.18-.21,2.36-.47,3.53-.74l1.56-.35a1.13,1.13,0,0,1,.25,0l.25,0a1.2,1.2,0,0,1,.87.64,1,1,0,0,1,0,1l-.32.48-.63.92-6.77,9.53a1.89,1.89,0,0,1-1.61.85Z"/><path class="cls-8" d="M78.35,46.62l3.9.83c.71.15,1.43.31,2.14.5a1,1,0,0,1,.52.41c.38.62.72,1.28,1.09,2,1.65-1.45,3.34-2.62,5.69-1.68-.6.77-1.19,1.49-1.72,2.25a2.9,2.9,0,0,0-.66,1.95c0,.39.21.53.58.46l10.57-2a3.86,3.86,0,0,0,.51-.14l-3.24-3.53a3.89,3.89,0,0,1,5.21-.77c-.4-1-.74-2-1.13-2.86a.83.83,0,0,1,.12-1c1.27-1.54,2.48-3.13,3.74-4.75L107.89,41c.56.7,1.11,1.4,1.62,2.14a.8.8,0,0,1,.09.69c-.35,1-.75,1.93-1.19,3.05a3.34,3.34,0,0,1,2.81-.67,4.77,4.77,0,0,1,2.47,1.42l-3.48,3.51,4.7.91,5.3,1,1.29.27c.3.05.49,0,.53-.4a3.75,3.75,0,0,0-1-2.57c-.41-.57-.9-1.08-1.35-1.63,1.34-.78,3.38-.58,5.68,1.64.25-.45.53-.87.74-1.32a1.9,1.9,0,0,1,1.5-1.25c1.71-.3,3.42-.72,5.13-1.09a1.34,1.34,0,0,1,.23,0c-.33.49-.64,1-1,1.39-2.26,3.18-4.5,6.35-6.77,9.53a.8.8,0,0,1-.74.39H86.85a.88.88,0,0,1-.63-.33Q82.85,53,79.49,48.23Z"/><path class="cls-8" d="M79.61,76.88h57l-3.54,13.67c-2-1.93-11.47-2.8-19.08-2.63V135a18.86,18.86,0,0,0,3.43,7.75H96a23.75,23.75,0,0,0,2.8-7.63V87.39c-7.56-.31-18,1-22.17,3.68l3-14.19Z"/><path class="cls-2" d="M83.75,171l-1.67-.4c0-.36-.08-.69-.13-1l-.15-.88a2.35,2.35,0,0,0-.37-1,1.23,1.23,0,0,0-.72-.42l-.26-.06L80,169.23a.5.5,0,0,0,0,.27.35.35,0,0,0,.15.22l.24.14.3.12-.07.3-2.53-.6.07-.3.29,0a1,1,0,0,0,.29,0,.32.32,0,0,0,.22-.12.65.65,0,0,0,.13-.25l.46-2-.26-.05a1.22,1.22,0,0,0-.83,0,2.48,2.48,0,0,0-.79.75c-.17.22-.36.47-.56.75l-.53.8-1.66-.41.07-.3.22,0,.25,0a.63.63,0,0,0,.34-.07,1.11,1.11,0,0,0,.3-.31l.36-.45.4-.51a2.56,2.56,0,0,1,.71-.63,2,2,0,0,1,.86-.24v-.05a2.21,2.21,0,0,1-.21-.4,2.12,2.12,0,0,1-.14-.4,3,3,0,0,1-.06-.4c0-.12,0-.26,0-.39s0-.23,0-.36,0-.24,0-.35a1.61,1.61,0,0,0-.09-.29,1,1,0,0,0-.15-.24l-.18.19a.63.63,0,0,1-.18.16l-.21.09a.49.49,0,0,1-.26,0,.4.4,0,0,1-.31-.23.64.64,0,0,1,0-.36.61.61,0,0,1,.09-.2.42.42,0,0,1,.17-.15A.66.66,0,0,1,77,163a1.2,1.2,0,0,1,.81.25,1.3,1.3,0,0,1,.34.36,2.08,2.08,0,0,1,.24.66c0,.25.06.48.08.71s0,.5.06.69a1.25,1.25,0,0,0,.19.55,1.64,1.64,0,0,0,.24.27.71.71,0,0,0,.29.14l.34.08.49-2a.83.83,0,0,0,0-.27.4.4,0,0,0-.15-.21,1.21,1.21,0,0,0-.25-.17,1.24,1.24,0,0,0-.28-.11l.08-.31,2.52.6-.07.3a1.3,1.3,0,0,0-.31,0h-.28a.26.26,0,0,0-.23.13.48.48,0,0,0-.11.25l-.51,2.08.35.08a.62.62,0,0,0,.33,0,.76.76,0,0,0,.33-.13,1.62,1.62,0,0,0,.42-.41c.11-.17.24-.37.36-.59s.25-.39.4-.6a2,2,0,0,1,.5-.47,1,1,0,0,1,.46-.18,1.15,1.15,0,0,1,.52,0,1,1,0,0,1,.31.12.59.59,0,0,1,.2.18.52.52,0,0,1,.09.2.59.59,0,0,1,0,.23.89.89,0,0,1-.08.17.26.26,0,0,1-.12.13.32.32,0,0,1-.16.09.52.52,0,0,1-.21,0,.7.7,0,0,1-.23-.11.44.44,0,0,1-.16-.17,1.45,1.45,0,0,1-.09-.22c0-.08,0-.17-.07-.25a.89.89,0,0,0-.25.14l-.21.23a1.66,1.66,0,0,0-.18.29,2.63,2.63,0,0,0-.18.3l-.2.32a2.36,2.36,0,0,1-.24.33,2.18,2.18,0,0,1-.3.31,1.7,1.7,0,0,1-.38.26l0,.07a1.89,1.89,0,0,1,.68.6,2.58,2.58,0,0,1,.35.88c0,.19.08.4.13.62s.08.42.11.57a1.16,1.16,0,0,0,.14.4.52.52,0,0,0,.22.2,1.19,1.19,0,0,0,.26.11l.22.08Z"/><path class="cls-2" d="M90.76,172.19l-2.55-.43.05-.31.31,0a1.25,1.25,0,0,0,.28,0,.44.44,0,0,0,.23-.13.57.57,0,0,0,.1-.27l.65-3.84-3.62,3.22v.1a.67.67,0,0,0,0,.25.48.48,0,0,0,.18.21,1.16,1.16,0,0,0,.25.12l.3.1,0,.3-2.54-.42,0-.31.31,0a.62.62,0,0,0,.28,0,.38.38,0,0,0,.21-.13.52.52,0,0,0,.12-.27l.74-4.45a.39.39,0,0,0,0-.26.34.34,0,0,0-.16-.21,1.74,1.74,0,0,0-.28-.16l-.27-.09,0-.31,2.55.43-.05.3h-.31l-.28,0a.32.32,0,0,0-.22.15.45.45,0,0,0-.09.26l-.64,3.74L90,166.63a.47.47,0,0,0,0-.27.38.38,0,0,0-.16-.2,1.28,1.28,0,0,0-.29-.15l-.29-.1,0-.31,2.55.43,0,.31a1.42,1.42,0,0,0-.31,0,1.45,1.45,0,0,0-.27,0,.35.35,0,0,0-.24.14.88.88,0,0,0-.09.26l-.74,4.44a.57.57,0,0,0,0,.26.38.38,0,0,0,.17.22,1.17,1.17,0,0,0,.25.12,1.15,1.15,0,0,0,.29.09Z"/><path class="cls-2" d="M96.59,169.91a1.81,1.81,0,0,1,.4.54,1.45,1.45,0,0,1,.1.74,1.44,1.44,0,0,1-.28.73,1.47,1.47,0,0,1-.54.48,2.42,2.42,0,0,1-.69.22,2.93,2.93,0,0,1-.78,0l-3-.32,0-.31h.31a1,1,0,0,0,.29,0,.44.44,0,0,0,.22-.15.53.53,0,0,0,.08-.26l.49-4.46a.78.78,0,0,0,0-.27.4.4,0,0,0-.18-.21,1.28,1.28,0,0,0-.29-.13l-.26-.08,0-.31,2.87.32a2.62,2.62,0,0,1,.63.14,1.61,1.61,0,0,1,.55.29,1.33,1.33,0,0,1,.39.46,1.16,1.16,0,0,1,.09.65,1.28,1.28,0,0,1-.18.58,1.32,1.32,0,0,1-.38.4,1.89,1.89,0,0,1-.49.25,3.87,3.87,0,0,1-.59.13v0a4.21,4.21,0,0,1,.58.21A2.2,2.2,0,0,1,96.59,169.91Zm-.56,1a1.25,1.25,0,0,0-.28-.94,1.46,1.46,0,0,0-1-.48l-.46,0-.29,0-.24,2.19a.44.44,0,0,0,.18.44,1.18,1.18,0,0,0,.6.21,1.3,1.3,0,0,0,1-.27A1.68,1.68,0,0,0,96,170.91Zm-.4-2a1,1,0,0,0,.27-.39A2.19,2.19,0,0,0,96,168a1.14,1.14,0,0,0-.2-.84,1.24,1.24,0,0,0-.85-.39l-.35,0-.36,0L94,169.05l.55.06a1.45,1.45,0,0,0,.63,0A1,1,0,0,0,95.63,168.86Z"/><path class="cls-2" d="M103.32,167.73a3.52,3.52,0,0,1,.6,1.08,4.15,4.15,0,0,1-.15,2.69,3.11,3.11,0,0,1-.71,1,3,3,0,0,1-1,.61,3.16,3.16,0,0,1-2.36-.14,2.64,2.64,0,0,1-.92-.73,3,3,0,0,1-.57-1.07,3.35,3.35,0,0,1-.16-1.31,3.53,3.53,0,0,1,.31-1.35,3,3,0,0,1,.71-1,2.76,2.76,0,0,1,1-.62,3.06,3.06,0,0,1,1.16-.17,3,3,0,0,1,1.16.29A3,3,0,0,1,103.32,167.73Zm-.89,4.4a2.78,2.78,0,0,0,.41-.89,5.37,5.37,0,0,0,.17-1.13,5.08,5.08,0,0,0-.07-1.19,3,3,0,0,0-.32-.93,1.91,1.91,0,0,0-.58-.62,1.76,1.76,0,0,0-1.73-.05,1.78,1.78,0,0,0-.63.62,3.2,3.2,0,0,0-.38.88,5.51,5.51,0,0,0-.16,1.09,6,6,0,0,0,0,1.15,2.85,2.85,0,0,0,.32.93,1.71,1.71,0,0,0,.56.63,1.68,1.68,0,0,0,.86.27,1.82,1.82,0,0,0,.85-.17A1.84,1.84,0,0,0,102.43,172.13Z"/><path class="cls-2" d="M110.19,171.44l-.11,1.84h-5.2V173l.36,0,.29-.06c.08-.05.16-.1.18-.17a.49.49,0,0,0,.06-.27v-4.49a.72.72,0,0,0,0-.27.4.4,0,0,0-.2-.18,1.74,1.74,0,0,0-.32-.1,1.81,1.81,0,0,0-.32,0V167h4.84v1.52h-.33a2.1,2.1,0,0,0-.38-.72.92.92,0,0,0-.57-.41,2.69,2.69,0,0,0-.32,0h-1.41v2.49h.7a1.2,1.2,0,0,0,.5-.07.63.63,0,0,0,.28-.21,1.2,1.2,0,0,0,.16-.34,2.59,2.59,0,0,0,.1-.4h.33v2.45h-.33a2.84,2.84,0,0,0-.1-.45,1.08,1.08,0,0,0-.16-.34.64.64,0,0,0-.3-.23,2.08,2.08,0,0,0-.48-.05h-.7v1.88a1.36,1.36,0,0,0,.05.44.36.36,0,0,0,.15.24.67.67,0,0,0,.31.12l.57,0h.38l.4,0a1.86,1.86,0,0,0,.34-.06.79.79,0,0,0,.26-.12,3.64,3.64,0,0,0,.43-.65,4.27,4.27,0,0,0,.28-.63Z"/><path class="cls-2" d="M119.68,172.74l-2.59.19,0-.31.31-.05a1.24,1.24,0,0,0,.27-.07.37.37,0,0,0,.17-.18.49.49,0,0,0,0-.28l-.36-5-2.87.21.37,5a.53.53,0,0,0,.07.26.45.45,0,0,0,.21.16.67.67,0,0,0,.27.06.93.93,0,0,0,.31,0l0,.31-2.59.19v-.31l.3-.05a1.29,1.29,0,0,0,.27-.08.42.42,0,0,0,.18-.17.5.5,0,0,0,0-.28l-.34-4.5a.41.41,0,0,0-.07-.25.38.38,0,0,0-.21-.18l-.29-.07a1.92,1.92,0,0,0-.3,0l0-.31,6.39-.47,0,.32a1.22,1.22,0,0,0-.3.06l-.26.08a.34.34,0,0,0-.19.2.59.59,0,0,0,0,.27l.33,4.49a.62.62,0,0,0,.07.26.54.54,0,0,0,.21.17l.28.06.3,0Z"/><path class="cls-2" d="M127.26,171.72l-2.56.36,0-.31.3-.07a.73.73,0,0,0,.27-.1.33.33,0,0,0,.17-.18.8.8,0,0,0,0-.29l-.54-3.86-2.48,4.16v.1a.75.75,0,0,0,.08.24.56.56,0,0,0,.23.14.9.9,0,0,0,.29,0,1.68,1.68,0,0,0,.32,0l0,.31-2.57.36,0-.31.3-.07a.82.82,0,0,0,.26-.09.36.36,0,0,0,.17-.18.54.54,0,0,0,0-.29l-.64-4.46a.48.48,0,0,0-.09-.26.58.58,0,0,0-.21-.16l-.3-.05a1.62,1.62,0,0,0-.3,0l0-.31,2.56-.36,0,.3-.3.09a1,1,0,0,0-.26.11.28.28,0,0,0-.17.2.61.61,0,0,0,0,.27l.54,3.77,2.47-4.16a.82.82,0,0,0-.1-.25.44.44,0,0,0-.22-.14l-.31-.06h-.31l0-.32,2.55-.36,0,.31-.3.09a1.42,1.42,0,0,0-.26.1.36.36,0,0,0-.17.2.81.81,0,0,0,0,.27l.63,4.47a.47.47,0,0,0,.09.25.34.34,0,0,0,.21.15,1.31,1.31,0,0,0,.28,0,.8.8,0,0,0,.31,0Z"/><path class="cls-2" d="M132.12,167.79a1.63,1.63,0,0,1,.55.39,1.49,1.49,0,0,1,.32.68,1.57,1.57,0,0,1,0,.78,1.75,1.75,0,0,1-.38.61,2,2,0,0,1-.6.43,2.36,2.36,0,0,1-.73.26l-2.91.58-.06-.31.3-.1.27-.12a.49.49,0,0,0,.16-.2.61.61,0,0,0,0-.27l-.88-4.42a.46.46,0,0,0-.1-.25.37.37,0,0,0-.23-.13,1.06,1.06,0,0,0-.31-.05h-.28l-.06-.3,2.84-.57a3.47,3.47,0,0,1,.64-.06,2,2,0,0,1,.62.12,1.15,1.15,0,0,1,.5.33,1.12,1.12,0,0,1,.28.59,1.26,1.26,0,0,1,0,.61,1.11,1.11,0,0,1-.24.5,2,2,0,0,1-.39.37,2.5,2.5,0,0,1-.53.3v0a3.26,3.26,0,0,1,.62,0A1.77,1.77,0,0,1,132.12,167.79Zm-1.22-.72a1.39,1.39,0,0,0,.14-.45,1.74,1.74,0,0,0,0-.54,1,1,0,0,0-1.36-.85l-.35.08-.35.08.47,2.36.55-.11a2.14,2.14,0,0,0,.59-.21A1.09,1.09,0,0,0,130.9,167.07Zm1,1.84a1.22,1.22,0,0,0-.54-.82,1.52,1.52,0,0,0-1.12-.14l-.46.1-.29.06.44,2.17a.43.43,0,0,0,.3.36,1.11,1.11,0,0,0,.64,0,1.29,1.29,0,0,0,.91-.57A1.62,1.62,0,0,0,131.89,168.91Z"/><path class="cls-2" d="M137.85,163.76a3.09,3.09,0,0,1,.88.85,3.6,3.6,0,0,1,.55,1.26,3.8,3.8,0,0,1,.1,1.37,3.25,3.25,0,0,1-.4,1.17,2.87,2.87,0,0,1-.78.85,2.66,2.66,0,0,1-1.06.5,3,3,0,0,1-1.23.05,2.7,2.7,0,0,1-1.08-.43,3,3,0,0,1-.85-.86,3.64,3.64,0,0,1-.54-1.22,4.07,4.07,0,0,1-.09-1.37,3.11,3.11,0,0,1,.39-1.17,2.79,2.79,0,0,1,.78-.86,3,3,0,0,1,1.07-.51,3.13,3.13,0,0,1,1.18,0A2.68,2.68,0,0,1,137.85,163.76Zm.43,4.46a2.81,2.81,0,0,0,.13-1,5.21,5.21,0,0,0-.16-1.12,5.94,5.94,0,0,0-.41-1.13,2.87,2.87,0,0,0-.57-.79,1.77,1.77,0,0,0-.73-.43,1.61,1.61,0,0,0-.87,0,1.54,1.54,0,0,0-.81.45,1.68,1.68,0,0,0-.43.77,3.32,3.32,0,0,0-.11,1,6,6,0,0,0,.16,1.08,4.87,4.87,0,0,0,.38,1.08,3,3,0,0,0,.57.8,1.75,1.75,0,0,0,.73.45,1.68,1.68,0,0,0,.89,0,1.65,1.65,0,0,0,.78-.42A1.8,1.8,0,0,0,138.28,168.22Z"/></g></g></svg>