<?xml version="1.0" encoding="UTF-8"?>
<svg xmlns="http://www.w3.org/2000/svg">
    <defs>
        <symbol viewBox="0 0 144.083 144" id="train-2">
            <g>
<path d="M130.897,66.262l-9.742-20.53c-0.377-4.618-4.256-8.261-8.969-8.261H13.127v6h99.059c1.654,0,3,1.346,3,3  c0,0.445,0.098,0.884,0.289,1.286l0.285,0.6h-6.514c-1.658,0-3,1.343-3,3v20c0,1.657,1.342,3,3,3h15.941v14.268c0,1.654-1.346,3-3,3  H13.127v6h8.73c0.145,1.794,0.729,3.463,1.645,4.905H13.127v6h115.061v-6h-17.631c0.916-1.442,1.5-3.111,1.645-4.905h9.986  c4.963,0,9-4.037,9-9V67.548C131.188,67.103,131.088,66.664,130.897,66.262z M32.656,101.586c-2.369,0-4.338-1.712-4.755-3.962  h9.508C36.992,99.874,35.024,101.586,32.656,101.586z M48.342,101.586c-2.369,0-4.338-1.712-4.755-3.962h9.508  C52.678,99.874,50.71,101.586,48.342,101.586z M57.495,102.529c0.915-1.442,1.499-3.111,1.644-4.905H74.92  c0.145,1.794,0.729,3.463,1.645,4.905H57.495z M85.719,101.586c-2.369,0-4.338-1.712-4.756-3.962h9.508  C90.055,99.874,88.086,101.586,85.719,101.586z M101.405,101.586c-2.369,0-4.338-1.712-4.756-3.962h9.508  C105.741,99.874,103.772,101.586,101.405,101.586z M125.188,68.356h-12.941v-14h6.361l6.58,13.867V68.356z"/>
<path d="M15.813,74.356h20c1.657,0,3-1.343,3-3v-20c0-1.657-1.343-3-3-3h-20c-1.657,0-3,1.343-3,3v20  C12.813,73.014,14.155,74.356,15.813,74.356z M18.813,54.356h14v14h-14V54.356z"/>
<path d="M65.188,74.356c1.657,0,3-1.343,3-3v-20c0-1.657-1.343-3-3-3h-20c-1.657,0-3,1.343-3,3v20c0,1.657,1.343,3,3,3H65.188z   M48.188,54.356h14v14h-14V54.356z"/>
<path d="M94.561,74.356c1.656,0,3-1.343,3-3v-20c0-1.657-1.344-3-3-3h-20c-1.658,0-3,1.343-3,3v20c0,1.657,1.342,3,3,3H94.561z   M77.561,54.356h14v14h-14V54.356z"/>
            </g>
        </symbol>
    </defs>
</svg>