<?xml version="1.0" encoding="UTF-8"?>
<svg xmlns="http://www.w3.org/2000/svg">
    <defs>
        <symbol viewBox="0 0 420.64647 252.50866" id="train02">
            <g>
<path d="M-47.85651,240.42679l-34.61826-72.95351a32.02441,32.02441,0,0,0-31.87141-29.35553H-466.35311v21.321h352.0069a10.67354,10.67354,0,0,1,10.66052,10.66053,10.64138,10.64138,0,0,0,1.027,4.56981l1.01276,2.13209H-124.7935A10.6576,10.6576,0,0,0-135.454,187.46175v71.07014a10.6576,10.6576,0,0,0,10.66053,10.66052H-68.147v50.70144a10.67354,10.67354,0,0,1-10.66053,10.66052H-466.35311v21.321H-435.331a38.1673,38.1673,0,0,0,5.84552,17.43h-36.86764v21.32105H-57.483V369.30536h-62.65188a38.16717,38.16717,0,0,0,5.84551-17.43H-78.804a32.016,32.016,0,0,0,31.98156-31.98156V244.99658A10.64871,10.64871,0,0,0-47.85651,240.42679ZM-396.95666,365.95088a17.21983,17.21983,0,0,1-16.89694-14.079h33.78675A17.21506,17.21506,0,0,1-396.95666,365.95088Zm55.74032,0a17.21982,17.21982,0,0,1-16.89693-14.079h33.78675A17.21506,17.21506,0,0,1-341.21634,365.95088Zm32.52525,3.351a38.20489,38.20489,0,0,0,5.842-17.43h56.0779a38.16705,38.16705,0,0,0,5.84551,17.43Zm100.29421-3.351a17.22646,17.22646,0,0,1-16.90047-14.079h33.78676A17.21133,17.21133,0,0,1-208.39688,365.95088Zm55.74031,0a17.22646,17.22646,0,0,1-16.90047-14.079h33.78676A17.21131,17.21131,0,0,1-152.65657,365.95088Zm84.51309-118.083h-45.98595V198.11873h22.60386l23.38209,49.27648Z" transform="translate(467.46891 -138.11775)"/><path d="M-456.80839,269.18888h71.07016a10.65986,10.65986,0,0,0,10.66052-10.66052V187.45821a10.65985,10.65985,0,0,0-10.66052-10.66052h-71.07016a10.65985,10.65985,0,0,0-10.66052,10.66052v71.07015A10.65532,10.65532,0,0,0-456.80839,269.18888Zm10.66053-71.07016h49.7491v49.74912h-49.7491Z" transform="translate(467.46891 -138.11775)"/><path d="M-281.35394,269.18888a10.65987,10.65987,0,0,0,10.66053-10.66052V187.45821a10.65986,10.65986,0,0,0-10.66053-10.66052h-71.07015a10.65985,10.65985,0,0,0-10.66052,10.66052v71.07015a10.65986,10.65986,0,0,0,10.66052,10.66052Zm-60.40964-71.07016h49.74911v49.74912h-49.74911Z" transform="translate(467.46891 -138.11775)"/><path d="M-176.97678,269.18888a10.66214,10.66214,0,0,0,10.66052-10.66052V187.45821a10.66213,10.66213,0,0,0-10.66052-10.66052h-71.07015a10.65759,10.65759,0,0,0-10.66053,10.66052v71.07015a10.6576,10.6576,0,0,0,10.66053,10.66052Zm-60.40963-71.07016h49.74911v49.74912h-49.74911Z" transform="translate(467.46891 -138.11775)"/>
            </g>
        </symbol>
    </defs>
</svg>