<?xml version="1.1" encoding="UTF-8"?>
<svg xmlns="http://www.w3.org/2000/svg">
    <defs>
        <symbol viewBox="0 0 460.35334 252.50869" id="train">
            <g>
<path d="M256.048,0H10.66052V21.32105H256.048c23.17953,0,51.24867,10.458,78.3655,25.39336a32.01193,32.01193,0,0,0-24.18872,30.983v27.23408a32.01605,32.01605,0,0,0,31.98157,31.98157h80.51536a31.96138,31.96138,0,0,0,13.64546-3.056c1.71277,3.4327,2.66513,6.46383,2.66513,8.94773v3.5535A46.12838,46.12838,0,0,1,392.954,192.43665H10.66052v21.321H41.68264a38.20893,38.20893,0,0,0,5.84552,17.42995H10.66052v21.32105H419.53065V231.18764H356.87877a38.25041,38.25041,0,0,0,5.84551-17.42995h35.48533v-.2665a67.44461,67.44461,0,0,0,62.14373-67.13286v-3.55351C460.35334,97.33767,332.08948,0,256.048,0ZM422.72526,115.59205H342.2099a10.67354,10.67354,0,0,1-10.66052-10.66053V77.69388A10.67353,10.67353,0,0,1,342.2099,67.03336h24.839c22.93079,15.95524,43.07207,33.57353,56.1916,48.50183C423.06285,115.5423,422.89582,115.59205,422.72526,115.59205ZM80.057,227.83313A17.21982,17.21982,0,0,1,63.16,213.75414H96.94679A17.20935,17.20935,0,0,1,80.057,227.83313Zm55.74032,0a17.21983,17.21983,0,0,1-16.89694-14.079H152.6871A17.2122,17.2122,0,0,1,135.79729,227.83313Zm32.52526,3.351a38.24661,38.24661,0,0,0,5.842-17.42995H230.246a38.16717,38.16717,0,0,0,5.84551,17.42995Zm100.29418-3.351a17.22647,17.22647,0,0,1-16.90047-14.079H285.503A17.20842,17.20842,0,0,1,268.61673,227.83313Zm55.74034,0a17.22646,17.22646,0,0,1-16.90047-14.079h33.78676A17.21133,17.21133,0,0,1,324.35707,227.83313Z"/><path d="M247.28859,128.62631a32.01605,32.01605,0,0,0,31.98156-31.98157V77.69388a32.016,32.016,0,0,0-31.98156-31.98156H31.98157A32.016,32.016,0,0,0,0,77.69388V96.64474a32.016,32.016,0,0,0,31.98157,31.98157ZM215.14712,67.03336h32.14147a10.67354,10.67354,0,0,1,10.66052,10.66052V96.64474a10.67354,10.67354,0,0,1-10.66052,10.66052H215.14712Zm-64.85152,0h43.53047v40.2719H150.2956Zm-64.85151,0h43.53047v40.2719H85.44409Zm-64.123,29.61138V77.69388A10.67353,10.67353,0,0,1,31.98157,67.03336H64.123v40.2719H31.98157A10.67353,10.67353,0,0,1,21.32105,96.64474Z"/>
            </g>
        </symbol>
    </defs>
</svg>


