<?xml version="1.0" encoding="utf-8"?>
<!-- Generator: Adobe Illustrator 16.0.0, SVG Export Plug-In . SVG Version: 6.00 Build 0)  -->
<!DOCTYPE svg PUBLIC "-//W3C//DTD SVG 1.1//EN" "http://www.w3.org/Graphics/SVG/1.1/DTD/svg11.dtd">
<svg xmlns="http://www.w3.org/2000/svg" xmlns:xlink="http://www.w3.org/1999/xlink" version="1.1" id="Bus" x="0px" y="0px" width="512" height="512" viewBox="0 0 144.083 144" enable-background="new 0 0 144.083 144" xml:space="preserve">
<path d="M134.254,75.125l-14.219-18.506v-8.41c0-4.963-4.037-9-9-9h-93.16c-4.963,0-9,4.037-9,9v38.5c0,4.963,4.037,9,9,9h6.27  c1.139,6.108,6.5,10.75,12.935,10.75s11.796-4.642,12.935-10.75h38.587c1.139,6.108,6.5,10.75,12.934,10.75  c6.436,0,11.797-4.642,12.936-10.75h17.404c1.658,0,3-1.343,3-3V76.953C134.875,76.292,134.657,75.649,134.254,75.125z   M37.08,100.459c-3.952,0-7.167-3.215-7.167-7.167s3.215-7.167,7.167-7.167s7.167,3.215,7.167,7.167S41.032,100.459,37.08,100.459z   M101.536,100.459c-3.951,0-7.166-3.215-7.166-7.167s3.215-7.167,7.166-7.167c3.953,0,7.168,3.215,7.168,7.167  S105.489,100.459,101.536,100.459z M128.875,89.709h-14.682c-1.564-5.522-6.641-9.584-12.658-9.584s-11.092,4.062-12.658,9.584  H49.739c-1.566-5.522-6.642-9.584-12.659-9.584s-11.093,4.062-12.659,9.584h-6.545c-1.654,0-3-1.346-3-3v-38.5c0-1.654,1.346-3,3-3  h93.16c1.654,0,3,1.346,3,3v9.43c0,0.661,0.219,1.304,0.621,1.828l14.219,18.506V89.709z"/>
<path d="M36.305,48.959H20.876c-1.657,0-3,1.343-3,3v13.792c0,1.657,1.343,3,3,3h15.429c1.657,0,3-1.343,3-3V51.959  C39.305,50.302,37.962,48.959,36.305,48.959z M33.305,62.751h-9.429v-7.792h9.429V62.751z"/>
<path d="M60.027,48.959H44.6c-1.657,0-3,1.343-3,3v13.792c0,1.657,1.343,3,3,3h15.428c1.657,0,3-1.343,3-3V51.959  C63.027,50.302,61.685,48.959,60.027,48.959z M57.027,62.751H47.6v-7.792h9.428V62.751z"/>
<path d="M83.75,48.959H68.322c-1.657,0-3,1.343-3,3v13.792c0,1.657,1.343,3,3,3H83.75c1.658,0,3-1.343,3-3V51.959  C86.75,50.302,85.409,48.959,83.75,48.959z M80.75,62.751h-9.428v-7.792h9.428V62.751z"/>
<path d="M107.473,48.959H92.045c-1.656,0-3,1.343-3,3v13.792c0,1.657,1.344,3,3,3h15.428c1.658,0,3-1.343,3-3V51.959  C110.473,50.302,109.131,48.959,107.473,48.959z M104.473,62.751h-9.428v-7.792h9.428V62.751z"/>
</svg>
